<?xml version="1.0" encoding="utf-8"?>
<!-- Generator: Adobe Illustrator 19.2.1, SVG Export Plug-In . SVG Version: 6.00 Build 0)  -->
<svg version="1.1" id="Layer_1" xmlns="http://www.w3.org/2000/svg" xmlns:xlink="http://www.w3.org/1999/xlink" x="0px" y="0px"
	 viewBox="0 0 596.8 243" style="enable-background:new 0 0 596.8 243;" xml:space="preserve">
<style type="text/css">
	.st0{fill:#808080;}
	.st1{fill:#FFFFFF;}
	.st2{fill:none;stroke:#808080;stroke-miterlimit:10;}
	.st3{fill:none;}
	.st4{fill:#333333;}
	.st5{fill:#FCFCFC;}
	.st6{font-family:'MyriadPro-Regular';}
	.st7{font-size:14px;}
</style>
<path class="st0" d="M363.8,221.8H235.3c-8.2,0-14.9-6.7-14.9-14.9l0,0c0-8.2,6.7-14.9,14.9-14.9h128.4c8.2,0,14.9,6.7,14.9,14.9
	l0,0C378.6,215.1,371.9,221.8,363.8,221.8z"/>
<path class="st0" d="M565.3,221.8H436.8c-8.2,0-14.9-6.7-14.9-14.9l0,0c0-8.2,6.7-14.9,14.9-14.9h128.4c8.2,0,14.9,6.7,14.9,14.9
	l0,0C580.1,215.1,573.4,221.8,565.3,221.8z"/>
<g>
	<path class="st1" d="M23.4,213.1l-1,2.4h-1.8l4.6-10.5H27l4.6,10.5h-1.9l-1-2.4H23.4z M26.1,206.8l-2,4.7h4L26.1,206.8z"/>
	<path class="st1" d="M39.1,208.7l-0.9,1.1c-0.6-0.6-1.3-0.9-2.3-0.9c-1.4,0-2.4,1-2.4,2.6s1,2.6,2.4,2.6c1,0,1.8-0.3,2.4-1l1,1
		c-0.7,0.9-1.9,1.5-3.4,1.5c-2.4,0-4-1.6-4-4c0-2.4,1.6-4.1,4-4.1C37.2,207.4,38.4,207.9,39.1,208.7z"/>
	<path class="st1" d="M47.2,208.7l-0.9,1.1c-0.6-0.6-1.3-0.9-2.3-0.9c-1.4,0-2.4,1-2.4,2.6s1,2.6,2.4,2.6c1,0,1.8-0.3,2.4-1l1,1
		c-0.7,0.9-1.9,1.5-3.4,1.5c-2.4,0-4-1.6-4-4c0-2.4,1.6-4.1,4-4.1C45.4,207.4,46.5,207.9,47.2,208.7z"/>
	<path class="st1" d="M51,205.2c0,0.6-0.4,1-1,1s-1-0.4-1-1c0-0.6,0.4-1.1,1-1.1S51,204.6,51,205.2z M49.1,215.5v-8h1.7v8H49.1z"/>
	<path class="st1" d="M61,215.5h-1.7v-1.4c-0.6,0.9-1.5,1.4-2.8,1.4c-2.3,0-3.8-1.7-3.8-4.1c0-2.4,1.5-4,3.8-4
		c1.3,0,2.2,0.5,2.8,1.5v-4.5H61C61,204.3,61,215.5,61,215.5z M59.3,211.5c0-1.5-1-2.6-2.4-2.6c-1.4,0-2.4,1.1-2.5,2.6
		c0,1.5,1,2.6,2.5,2.6C58.3,214.1,59.3,213,59.3,211.5z"/>
	<path class="st1" d="M70.6,212.1h-6c0.3,1.2,1.2,2,2.5,2c0.9,0,1.7-0.3,2.2-0.9l0.9,1c-0.8,0.9-1.9,1.4-3.3,1.4
		c-2.5,0-4.1-1.6-4.1-4c0-2.4,1.7-4.1,4-4.1C69.7,207.4,70.9,209.2,70.6,212.1z M69.1,210.9c-0.1-1.3-0.9-2.1-2.2-2.1
		c-1.3,0-2.1,0.8-2.3,2.1H69.1z"/>
	<path class="st1" d="M80.1,210.5v5h-1.7V211c0-1.2-0.7-1.9-1.9-1.9c-1.3,0-2.1,0.9-2.3,2.2v4.2h-1.7v-8h1.7v1.5
		c0.6-1.1,1.6-1.6,2.9-1.6C79,207.4,80.1,208.6,80.1,210.5z"/>
	<path class="st1" d="M86.9,214.9c-0.6,0.4-1.3,0.6-2,0.6c-1.2,0-2.2-0.7-2.2-2.3v-4.1h-1.1v-1.3h1.1v-2.2h1.7v2.2h2.4v1.3h-2.4v3.8
		c0,0.8,0.3,1.1,0.9,1.1c0.4,0,0.7-0.1,1.2-0.3L86.9,214.9z"/>
	<path class="st1" d="M94.2,215.5l-3.1-8h1.8l2.2,6.3l2.2-6.3H99l-3.1,8H94.2z"/>
	<path class="st1" d="M102.1,205.2c0,0.6-0.4,1-1,1s-1-0.4-1-1c0-0.6,0.4-1.1,1-1.1S102.1,204.6,102.1,205.2z M100.2,215.5v-8h1.7v8
		H100.2z"/>
	<path class="st1" d="M111.1,208.7l-0.9,1.1c-0.6-0.6-1.3-0.9-2.3-0.9c-1.4,0-2.4,1-2.4,2.6s1,2.6,2.4,2.6c1,0,1.8-0.3,2.4-1l1,1
		c-0.7,0.9-1.9,1.5-3.4,1.5c-2.4,0-4-1.6-4-4c0-2.4,1.6-4.1,4-4.1C109.2,207.4,110.3,207.9,111.1,208.7z"/>
	<path class="st1" d="M117.5,214.9c-0.6,0.4-1.3,0.6-2,0.6c-1.2,0-2.2-0.7-2.2-2.3v-4.1h-1.1v-1.3h1.1v-2.2h1.7v2.2h2.4v1.3H115v3.8
		c0,0.8,0.3,1.1,0.9,1.1c0.4,0,0.7-0.1,1.2-0.3L117.5,214.9z"/>
	<path class="st1" d="M120.9,205.2c0,0.6-0.4,1-1,1s-1-0.4-1-1c0-0.6,0.4-1.1,1-1.1S120.9,204.6,120.9,205.2z M119.1,215.5v-8h1.7v8
		H119.1z"/>
	<path class="st1" d="M136.7,210.5v5h-1.7V211c0-1.2-0.7-1.9-1.9-1.9c-1.4,0-2.2,1.1-2.2,2.5v3.9h-1.7V211c0-1.2-0.7-1.9-1.9-1.9
		c-1.4,0-2.2,1.1-2.2,2.5v3.9h-1.7v-8h1.7v1.5c0.6-1.1,1.6-1.6,2.9-1.6c1.4,0,2.4,0.7,2.8,1.9c0.5-1.3,1.6-1.9,3-1.9
		C135.6,207.4,136.7,208.6,136.7,210.5z"/>
</g>
<path class="st0" d="M359.8,39.6H231.4c-8.2,0-14.9-6.7-14.9-14.9l0,0c0-8.2,6.7-14.9,14.9-14.9h128.4c8.2,0,14.9,6.7,14.9,14.9l0,0
	C374.7,32.9,368,39.6,359.8,39.6z"/>
<path class="st0" d="M156.9,221.8H28.5c-8.2,0-14.9-6.7-14.9-14.9l0,0c0-8.2,6.7-14.9,14.9-14.9h128.4c8.2,0,14.9,6.7,14.9,14.9l0,0
	C171.7,215.1,165,221.8,156.9,221.8z"/>
<line class="st2" x1="294.3" y1="192.5" x2="294.3" y2="39.5"/>
<line class="st2" x1="92.3" y1="192.5" x2="92.3" y2="116.5"/>
<line class="st2" x1="92.3" y1="116.5" x2="501" y2="119.7"/>
<line class="st2" x1="501.3" y1="119.5" x2="501.3" y2="192.5"/>
<g>
	<rect x="299.5" y="85.2" class="st3" width="173.6" height="21.1"/>
	<path class="st4" d="M311.3,94.1l-4.5-6v6h-1.4v-8.4h1.4l4.5,6v-6h1.4v8.4L311.3,94.1L311.3,94.1z"/>
	<path class="st4" d="M320.4,91.5h-4.8c0.2,1,1,1.6,2,1.6c0.7,0,1.3-0.3,1.8-0.7l0.7,0.8c-0.6,0.7-1.5,1.1-2.6,1.1
		c-2,0-3.3-1.3-3.3-3.2c0-1.9,1.3-3.2,3.2-3.2C319.7,87.7,320.6,89.2,320.4,91.5z M319.2,90.4c0-1-0.7-1.7-1.8-1.7
		c-1,0-1.7,0.6-1.9,1.7H319.2z"/>
	<path class="st4" d="M327.5,91.5h-4.8c0.2,1,1,1.6,2,1.6c0.7,0,1.3-0.3,1.8-0.7l0.7,0.8c-0.6,0.7-1.5,1.1-2.6,1.1
		c-2,0-3.3-1.3-3.3-3.2c0-1.9,1.3-3.2,3.2-3.2C326.7,87.7,327.6,89.2,327.5,91.5z M326.3,90.4c0-1-0.7-1.7-1.8-1.7
		c-1,0-1.7,0.6-1.9,1.7H326.3z"/>
	<path class="st4" d="M335,94.1h-1.4V93c-0.5,0.7-1.2,1.2-2.2,1.2c-1.8,0-3.1-1.3-3.1-3.3c0-1.9,1.2-3.2,3-3.2c1,0,1.8,0.4,2.3,1.2
		v-3.6h1.4V94.1z M333.6,90.9c0-1.2-0.8-2.1-2-2.1s-2,0.9-2,2.1c0,1.2,0.8,2.1,2,2.1C332.8,93,333.6,92.2,333.6,90.9z"/>
	<path class="st4" d="M343.8,93.7c-0.5,0.3-1,0.5-1.6,0.5c-1,0-1.8-0.6-1.8-1.9V89h-0.9v-1h0.9v-1.8h1.4V88h1.9v1h-1.9v3.1
		c0,0.7,0.3,0.9,0.7,0.9c0.3,0,0.6-0.1,1-0.3L343.8,93.7z"/>
	<path class="st4" d="M351.1,90.9c0,1.9-1.4,3.2-3.3,3.2c-2,0-3.3-1.3-3.3-3.2c0-1.9,1.4-3.2,3.3-3.2
		C349.7,87.7,351.1,89,351.1,90.9z M345.8,90.9c0,1.2,0.8,2.1,2,2.1c1.1,0,1.9-0.8,1.9-2.1c0-1.2-0.8-2.1-1.9-2.1
		C346.6,88.9,345.8,89.7,345.8,90.9z"/>
	<path class="st4" d="M360.8,88.7l-0.8,0.9c-0.4-0.5-1.1-0.7-1.8-0.7c-1.1,0-1.9,0.8-1.9,2s0.8,2,1.9,2c0.8,0,1.5-0.3,1.9-0.8
		l0.8,0.8c-0.6,0.8-1.5,1.2-2.7,1.2c-1.9,0-3.2-1.3-3.2-3.2c0-1.9,1.3-3.2,3.2-3.2C359.4,87.7,360.3,88.1,360.8,88.7z"/>
	<path class="st4" d="M368.2,90.9c0,1.9-1.4,3.2-3.3,3.2c-2,0-3.3-1.3-3.3-3.2c0-1.9,1.4-3.2,3.3-3.2
		C366.8,87.7,368.2,89,368.2,90.9z M362.9,90.9c0,1.2,0.8,2.1,2,2.1c1.1,0,1.9-0.8,1.9-2.1c0-1.2-0.8-2.1-1.9-2.1
		C363.7,88.9,362.9,89.7,362.9,90.9z"/>
	<path class="st4" d="M380.3,90.1v4h-1.4v-3.6c0-1-0.6-1.6-1.5-1.6c-1.1,0-1.8,0.9-1.8,2v3.2h-1.4v-3.6c0-1-0.6-1.6-1.5-1.6
		c-1.1,0-1.8,0.9-1.8,2v3.2h-1.4v-6.4h1.4V89c0.4-0.9,1.3-1.3,2.3-1.3c1.1,0,1.9,0.6,2.2,1.5c0.4-1.1,1.3-1.5,2.4-1.5
		C379.4,87.7,380.3,88.6,380.3,90.1z"/>
	<path class="st4" d="M392.8,90.1v4h-1.4v-3.6c0-1-0.6-1.6-1.5-1.6c-1.1,0-1.8,0.9-1.8,2v3.2h-1.4v-3.6c0-1-0.6-1.6-1.5-1.6
		c-1.1,0-1.8,0.9-1.8,2v3.2h-1.4v-6.4h1.4V89c0.4-0.9,1.3-1.3,2.3-1.3c1.1,0,1.9,0.6,2.2,1.5c0.4-1.1,1.3-1.5,2.4-1.5
		C391.9,87.7,392.8,88.6,392.8,90.1z"/>
	<path class="st4" d="M400.4,94.1h-1.4v-1.2c-0.4,0.9-1.2,1.3-2.3,1.3c-1.5,0-2.3-0.9-2.3-2.5v-4h1.4v3.6c0,1,0.6,1.5,1.5,1.5
		c1.1,0,1.8-0.9,1.8-2v-3.1h1.4V94.1z"/>
	<path class="st4" d="M408.6,90.1v4h-1.4v-3.6c0-1-0.6-1.5-1.5-1.5c-1.1,0-1.7,0.7-1.8,1.7v3.4h-1.4v-6.4h1.4V89
		c0.5-0.9,1.3-1.3,2.4-1.3C407.7,87.7,408.6,88.6,408.6,90.1z"/>
	<path class="st4" d="M411.9,85.9c0,0.5-0.3,0.8-0.8,0.8s-0.8-0.3-0.8-0.8c0-0.5,0.3-0.8,0.8-0.8S411.9,85.4,411.9,85.9z
		 M410.4,94.1v-6.4h1.4v6.4H410.4z"/>
	<path class="st4" d="M419.1,88.7l-0.8,0.9c-0.4-0.5-1.1-0.7-1.8-0.7c-1.1,0-1.9,0.8-1.9,2s0.8,2,1.9,2c0.8,0,1.5-0.3,1.9-0.8
		l0.8,0.8c-0.6,0.8-1.5,1.2-2.7,1.2c-1.9,0-3.2-1.3-3.2-3.2c0-1.9,1.3-3.2,3.2-3.2C417.6,87.7,418.5,88.1,419.1,88.7z"/>
	<path class="st4" d="M424.2,93.3c-0.5,0.6-1.2,0.8-2.1,0.8c-1.4,0-2.2-0.9-2.2-2c0-1.2,0.9-1.9,2.4-1.9h1.9v-0.2
		c0-0.8-0.5-1.3-1.5-1.3c-0.6,0-1.2,0.2-1.9,0.6l-0.6-1c0.9-0.5,1.5-0.8,2.7-0.8c1.6,0,2.6,0.8,2.6,2.2l0,4.2h-1.4L424.2,93.3
		L424.2,93.3z M424.2,91.9v-0.6h-1.7c-0.9,0-1.3,0.2-1.3,0.9c0,0.6,0.5,0.9,1.2,0.9C423.3,93.1,424.1,92.6,424.2,91.9z"/>
	<path class="st4" d="M431,93.7c-0.5,0.3-1,0.5-1.6,0.5c-1,0-1.8-0.6-1.8-1.9V89h-0.9v-1h0.9v-1.8h1.4V88h1.9v1H429v3.1
		c0,0.7,0.3,0.9,0.7,0.9c0.3,0,0.6-0.1,1-0.3L431,93.7z"/>
	<path class="st4" d="M437.8,91.5H433c0.2,1,1,1.6,2,1.6c0.7,0,1.3-0.3,1.8-0.7l0.7,0.8c-0.6,0.7-1.5,1.1-2.6,1.1
		c-2,0-3.3-1.3-3.3-3.2c0-1.9,1.3-3.2,3.2-3.2C437.1,87.7,438,89.2,437.8,91.5z M436.6,90.4c0-1-0.7-1.7-1.8-1.7
		c-1,0-1.7,0.6-1.9,1.7H436.6z"/>
	<path class="st4" d="M448.3,94.1l-1.6-4.7l-1.6,4.7h-1.4l-2.4-6.4h1.4l1.7,5l1.6-5h1.4l1.6,5l1.6-5h1.4l-2.3,6.4H448.3z"/>
	<path class="st4" d="M454.5,85.9c0,0.5-0.3,0.8-0.8,0.8s-0.8-0.3-0.8-0.8c0-0.5,0.3-0.8,0.8-0.8S454.5,85.4,454.5,85.9z
		 M453.1,94.1v-6.4h1.4v6.4H453.1z"/>
	<path class="st4" d="M460.1,93.7c-0.5,0.3-1,0.5-1.6,0.5c-1,0-1.8-0.6-1.8-1.9V89h-0.9v-1h0.9v-1.8h1.4V88h1.9v1h-1.9v3.1
		c0,0.7,0.3,0.9,0.7,0.9c0.3,0,0.6-0.1,1-0.3L460.1,93.7z"/>
	<path class="st4" d="M467.5,90.1v4h-1.4v-3.6c0-1-0.6-1.5-1.5-1.5c-1.1,0-1.8,0.9-1.8,2v3.1h-1.4v-8.9h1.4V89
		c0.5-0.9,1.3-1.3,2.4-1.3C466.6,87.7,467.5,88.6,467.5,90.1z"/>
</g>
<text transform="matrix(1 0 0 1 34.316 210.633)" class="st5 st6 st7">Emergency Services</text>
<text transform="matrix(1 0 0 1 247 28.766)" class="st1 st6 st7">Accident victims</text>
<text transform="matrix(1 0 0 1 247 211.861)" class="st1 st6 st7">Friends &amp; Family</text>
<text transform="matrix(1 0 0 1 459.9475 211.472)" class="st1 st6 st7">People nearby</text>
</svg>
