<?xml version="1.0" encoding="utf-8"?>
<!-- Generator: Adobe Illustrator 19.1.0, SVG Export Plug-In . SVG Version: 6.00 Build 0)  -->
<svg version="1.0" id="Layer_1" xmlns="http://www.w3.org/2000/svg" xmlns:xlink="http://www.w3.org/1999/xlink" x="0px" y="0px"
	 width="596.789px" height="242.958px" viewBox="0 0 596.789 242.958" style="enable-background:new 0 0 596.789 242.958;"
	 xml:space="preserve">
<style type="text/css">
	.st0{fill:#808080;}
	.st1{fill:#FFFFFF;}
	.st2{fill:#666666;stroke:#808080;stroke-miterlimit:10;}
	.st3{fill:none;stroke:#808080;stroke-miterlimit:10;}
	.st4{fill:none;}
	.st5{fill:#333333;}
</style>
<path class="st0" d="M363.757,221.828H235.328c-8.168,0-14.851-6.683-14.851-14.851v0c0-8.168,6.683-14.851,14.851-14.851h128.429
	c8.168,0,14.851,6.683,14.851,14.851v0C378.608,215.145,371.925,221.828,363.757,221.828z"/>
<g>
	<path class="st1" d="M245.174,210.081l-1.005,2.37h-1.846l4.635-10.5h1.815l4.59,10.5h-1.89l-1.005-2.37H245.174z M247.814,203.841
		l-1.98,4.665h3.96L247.814,203.841z"/>
	<path class="st1" d="M260.833,205.716l-0.945,1.11c-0.555-0.57-1.319-0.915-2.279-0.9c-1.38,0-2.37,1.035-2.37,2.55
		c0,1.515,0.99,2.55,2.37,2.55c1.005,0,1.814-0.33,2.354-0.96l0.96,0.96c-0.72,0.945-1.875,1.485-3.39,1.485
		c-2.37,0-4.02-1.635-4.02-4.035c0-2.415,1.649-4.065,4.02-4.065C258.973,204.411,260.098,204.876,260.833,205.716z"/>
	<path class="st1" d="M268.979,205.716l-0.945,1.11c-0.555-0.57-1.319-0.915-2.279-0.9c-1.38,0-2.37,1.035-2.37,2.55
		c0,1.515,0.99,2.55,2.37,2.55c1.005,0,1.814-0.33,2.354-0.96l0.96,0.96c-0.72,0.945-1.875,1.485-3.39,1.485
		c-2.37,0-4.02-1.635-4.02-4.035c0-2.415,1.649-4.065,4.02-4.065C267.118,204.411,268.243,204.876,268.979,205.716z"/>
	<path class="st1" d="M272.729,202.191c0,0.6-0.435,1.035-1.005,1.035s-1.005-0.435-1.005-1.035c0-0.615,0.435-1.05,1.005-1.05
		S272.729,201.576,272.729,202.191z M270.869,212.451v-7.979h1.71v7.979H270.869z"/>
	<path class="st1" d="M282.733,212.451h-1.726v-1.365c-0.569,0.93-1.529,1.44-2.805,1.44c-2.294,0-3.824-1.665-3.824-4.095
		c0-2.4,1.545-4.035,3.794-4.035c1.289,0,2.249,0.525,2.834,1.455v-4.53h1.726V212.451z M281.007,208.491
		c0-1.545-1.005-2.625-2.444-2.625c-1.44,0-2.445,1.095-2.459,2.625c0.015,1.515,1.005,2.595,2.459,2.595
		C280.003,211.086,281.007,210.006,281.007,208.491z"/>
	<path class="st1" d="M292.378,209.121h-6.03c0.271,1.23,1.215,1.995,2.476,1.995c0.869,0,1.664-0.33,2.249-0.93l0.915,0.975
		c-0.779,0.855-1.92,1.35-3.3,1.35c-2.46,0-4.079-1.635-4.079-4.035c0-2.415,1.664-4.05,4.034-4.065
		C291.447,204.411,292.588,206.241,292.378,209.121z M290.878,207.861c-0.061-1.29-0.915-2.07-2.22-2.07
		c-1.261,0-2.146,0.795-2.34,2.07H290.878z"/>
	<path class="st1" d="M301.812,207.486v4.965h-1.725v-4.485c0-1.2-0.72-1.935-1.92-1.935c-1.319,0.015-2.145,0.93-2.265,2.175v4.245
		h-1.725v-7.979h1.725v1.53c0.57-1.11,1.59-1.59,2.939-1.59C300.703,204.411,301.812,205.581,301.812,207.486z"/>
	<path class="st1" d="M308.638,211.941c-0.63,0.375-1.29,0.585-1.965,0.585c-1.2,0-2.235-0.69-2.235-2.325v-4.14h-1.125v-1.29h1.125
		v-2.19h1.71v2.19h2.354v1.29h-2.354v3.825c0,0.825,0.315,1.08,0.855,1.08c0.359,0,0.734-0.12,1.199-0.345L308.638,211.941z"/>
	<path class="st1" d="M315.927,212.451l-3.09-7.979h1.8l2.221,6.285l2.189-6.285h1.725l-3.06,7.979H315.927z"/>
	<path class="st1" d="M323.833,202.191c0,0.6-0.435,1.035-1.005,1.035s-1.005-0.435-1.005-1.035c0-0.615,0.435-1.05,1.005-1.05
		S323.833,201.576,323.833,202.191z M321.973,212.451v-7.979h1.71v7.979H321.973z"/>
	<path class="st1" d="M332.802,205.716l-0.945,1.11c-0.555-0.57-1.319-0.915-2.279-0.9c-1.38,0-2.37,1.035-2.37,2.55
		c0,1.515,0.99,2.55,2.37,2.55c1.005,0,1.814-0.33,2.354-0.96l0.96,0.96c-0.72,0.945-1.875,1.485-3.39,1.485
		c-2.37,0-4.02-1.635-4.02-4.035c0-2.415,1.649-4.065,4.02-4.065C330.942,204.411,332.067,204.876,332.802,205.716z"/>
	<path class="st1" d="M339.208,211.941c-0.63,0.375-1.29,0.585-1.965,0.585c-1.2,0-2.235-0.69-2.235-2.325v-4.14h-1.125v-1.29h1.125
		v-2.19h1.71v2.19h2.354v1.29h-2.354v3.825c0,0.825,0.315,1.08,0.855,1.08c0.359,0,0.734-0.12,1.199-0.345L339.208,211.941z"/>
	<path class="st1" d="M342.658,202.191c0,0.6-0.435,1.035-1.005,1.035s-1.005-0.435-1.005-1.035c0-0.615,0.435-1.05,1.005-1.05
		S342.658,201.576,342.658,202.191z M340.798,212.451v-7.979h1.71v7.979H340.798z"/>
	<path class="st1" d="M358.392,207.486v4.965h-1.725v-4.485c0-1.215-0.721-1.95-1.891-1.95c-1.364,0.045-2.189,1.095-2.189,2.49
		v3.945h-1.725v-4.485c0-1.215-0.705-1.95-1.875-1.95c-1.38,0.045-2.22,1.095-2.22,2.49v3.945h-1.71v-7.979h1.71v1.545
		c0.555-1.125,1.574-1.605,2.895-1.605c1.425,0,2.399,0.705,2.774,1.92c0.511-1.335,1.575-1.92,3.03-1.92
		C357.298,204.411,358.392,205.581,358.392,207.486z"/>
</g>
<path class="st0" d="M565.264,221.828H436.835c-8.168,0-14.851-6.683-14.851-14.851v0c0-8.168,6.683-14.851,14.851-14.851h128.429
	c8.168,0,14.851,6.683,14.851,14.851v0C580.115,215.145,573.432,221.828,565.264,221.828z"/>
<g>
	<path class="st1" d="M447.385,210.081l-1.005,2.37h-1.846l4.635-10.5h1.815l4.59,10.5h-1.89l-1.005-2.37H447.385z M450.025,203.841
		l-1.98,4.665h3.96L450.025,203.841z"/>
	<path class="st1" d="M463.045,205.716l-0.945,1.11c-0.555-0.57-1.319-0.915-2.279-0.9c-1.38,0-2.37,1.035-2.37,2.55
		c0,1.515,0.99,2.55,2.37,2.55c1.005,0,1.814-0.33,2.354-0.96l0.96,0.96c-0.72,0.945-1.875,1.485-3.39,1.485
		c-2.37,0-4.02-1.635-4.02-4.035c0-2.415,1.649-4.065,4.02-4.065C461.184,204.411,462.309,204.876,463.045,205.716z"/>
	<path class="st1" d="M471.19,205.716l-0.945,1.11c-0.555-0.57-1.319-0.915-2.279-0.9c-1.38,0-2.37,1.035-2.37,2.55
		c0,1.515,0.99,2.55,2.37,2.55c1.005,0,1.814-0.33,2.354-0.96l0.96,0.96c-0.72,0.945-1.875,1.485-3.39,1.485
		c-2.37,0-4.02-1.635-4.02-4.035c0-2.415,1.649-4.065,4.02-4.065C469.33,204.411,470.455,204.876,471.19,205.716z"/>
	<path class="st1" d="M474.94,202.191c0,0.6-0.435,1.035-1.005,1.035s-1.005-0.435-1.005-1.035c0-0.615,0.435-1.05,1.005-1.05
		S474.94,201.576,474.94,202.191z M473.081,212.451v-7.979h1.71v7.979H473.081z"/>
	<path class="st1" d="M484.945,212.451h-1.726v-1.365c-0.569,0.93-1.529,1.44-2.805,1.44c-2.295,0-3.824-1.665-3.824-4.095
		c0-2.4,1.545-4.035,3.795-4.035c1.289,0,2.249,0.525,2.834,1.455v-4.53h1.726V212.451z M483.219,208.491
		c0-1.545-1.005-2.625-2.444-2.625c-1.44,0-2.445,1.095-2.46,2.625c0.015,1.515,1.005,2.595,2.46,2.595
		C482.215,211.086,483.219,210.006,483.219,208.491z"/>
	<path class="st1" d="M494.59,209.121h-6.03c0.271,1.23,1.215,1.995,2.476,1.995c0.869,0,1.664-0.33,2.249-0.93l0.915,0.975
		c-0.779,0.855-1.92,1.35-3.3,1.35c-2.46,0-4.079-1.635-4.079-4.035c0-2.415,1.664-4.05,4.034-4.065
		C493.659,204.411,494.799,206.241,494.59,209.121z M493.09,207.861c-0.061-1.29-0.915-2.07-2.22-2.07
		c-1.261,0-2.146,0.795-2.34,2.07H493.09z"/>
	<path class="st1" d="M504.024,207.486v4.965h-1.725v-4.485c0-1.2-0.72-1.935-1.92-1.935c-1.319,0.015-2.145,0.93-2.265,2.175v4.245
		h-1.725v-7.979h1.725v1.53c0.57-1.11,1.59-1.59,2.939-1.59C502.915,204.411,504.024,205.581,504.024,207.486z"/>
	<path class="st1" d="M510.85,211.941c-0.63,0.375-1.29,0.585-1.965,0.585c-1.2,0-2.235-0.69-2.235-2.325v-4.14h-1.125v-1.29h1.125
		v-2.19h1.71v2.19h2.354v1.29h-2.354v3.825c0,0.825,0.315,1.08,0.855,1.08c0.359,0,0.734-0.12,1.199-0.345L510.85,211.941z"/>
	<path class="st1" d="M518.139,212.451l-3.09-7.979h1.8l2.221,6.285l2.189-6.285h1.725l-3.06,7.979H518.139z"/>
	<path class="st1" d="M526.045,202.191c0,0.6-0.435,1.035-1.005,1.035s-1.005-0.435-1.005-1.035c0-0.615,0.435-1.05,1.005-1.05
		S526.045,201.576,526.045,202.191z M524.185,212.451v-7.979h1.71v7.979H524.185z"/>
	<path class="st1" d="M535.014,205.716l-0.945,1.11c-0.555-0.57-1.319-0.915-2.279-0.9c-1.38,0-2.37,1.035-2.37,2.55
		c0,1.515,0.99,2.55,2.37,2.55c1.005,0,1.814-0.33,2.354-0.96l0.96,0.96c-0.72,0.945-1.875,1.485-3.39,1.485
		c-2.37,0-4.02-1.635-4.02-4.035c0-2.415,1.649-4.065,4.02-4.065C533.154,204.411,534.279,204.876,535.014,205.716z"/>
	<path class="st1" d="M541.42,211.941c-0.63,0.375-1.29,0.585-1.965,0.585c-1.2,0-2.235-0.69-2.235-2.325v-4.14h-1.125v-1.29h1.125
		v-2.19h1.71v2.19h2.354v1.29h-2.354v3.825c0,0.825,0.315,1.08,0.855,1.08c0.359,0,0.734-0.12,1.199-0.345L541.42,211.941z"/>
	<path class="st1" d="M544.87,202.191c0,0.6-0.435,1.035-1.005,1.035s-1.005-0.435-1.005-1.035c0-0.615,0.435-1.05,1.005-1.05
		S544.87,201.576,544.87,202.191z M543.01,212.451v-7.979h1.71v7.979H543.01z"/>
	<path class="st1" d="M560.604,207.486v4.965h-1.725v-4.485c0-1.215-0.721-1.95-1.891-1.95c-1.364,0.045-2.189,1.095-2.189,2.49
		v3.945h-1.725v-4.485c0-1.215-0.705-1.95-1.875-1.95c-1.38,0.045-2.22,1.095-2.22,2.49v3.945h-1.71v-7.979h1.71v1.545
		c0.555-1.125,1.574-1.605,2.895-1.605c1.425,0,2.399,0.705,2.774,1.92c0.511-1.335,1.575-1.92,3.03-1.92
		C559.509,204.411,560.604,205.581,560.604,207.486z"/>
</g>
<g>
	<path class="st1" d="M23.442,213.081l-1.005,2.37h-1.846l4.635-10.5h1.815l4.59,10.5h-1.89l-1.005-2.37H23.442z M26.081,206.841
		l-1.98,4.665h3.96L26.081,206.841z"/>
	<path class="st1" d="M39.101,208.716l-0.945,1.11c-0.555-0.57-1.319-0.915-2.279-0.9c-1.38,0-2.37,1.035-2.37,2.55
		c0,1.515,0.99,2.55,2.37,2.55c1.005,0,1.814-0.33,2.354-0.96l0.96,0.96c-0.72,0.944-1.875,1.484-3.39,1.484
		c-2.37,0-4.02-1.635-4.02-4.034c0-2.415,1.649-4.065,4.02-4.065C37.24,207.411,38.365,207.876,39.101,208.716z"/>
	<path class="st1" d="M47.246,208.716l-0.945,1.11c-0.555-0.57-1.319-0.915-2.279-0.9c-1.38,0-2.37,1.035-2.37,2.55
		c0,1.515,0.99,2.55,2.37,2.55c1.005,0,1.814-0.33,2.354-0.96l0.96,0.96c-0.72,0.944-1.875,1.484-3.39,1.484
		c-2.37,0-4.02-1.635-4.02-4.034c0-2.415,1.649-4.065,4.02-4.065C45.386,207.411,46.511,207.876,47.246,208.716z"/>
	<path class="st1" d="M50.996,205.191c0,0.6-0.435,1.035-1.005,1.035s-1.005-0.435-1.005-1.035c0-0.615,0.435-1.05,1.005-1.05
		S50.996,204.576,50.996,205.191z M49.137,215.451v-7.979h1.71v7.979H49.137z"/>
	<path class="st1" d="M61.001,215.451h-1.726v-1.365c-0.569,0.93-1.529,1.44-2.805,1.44c-2.295,0-3.824-1.665-3.824-4.095
		c0-2.4,1.545-4.035,3.795-4.035c1.289,0,2.249,0.525,2.834,1.455v-4.53h1.726V215.451z M59.276,211.491
		c0-1.545-1.005-2.625-2.444-2.625c-1.44,0-2.445,1.095-2.46,2.625c0.015,1.515,1.005,2.595,2.46,2.595
		C58.271,214.085,59.276,213.006,59.276,211.491z"/>
	<path class="st1" d="M70.646,212.121h-6.03c0.271,1.23,1.215,1.995,2.476,1.995c0.869,0,1.664-0.33,2.249-0.93l0.915,0.975
		c-0.779,0.854-1.92,1.35-3.3,1.35c-2.46,0-4.079-1.635-4.079-4.034c0-2.415,1.664-4.05,4.034-4.065
		C69.715,207.411,70.856,209.241,70.646,212.121z M69.146,210.861c-0.061-1.29-0.915-2.07-2.22-2.07c-1.261,0-2.146,0.795-2.34,2.07
		H69.146z"/>
	<path class="st1" d="M80.08,210.486v4.965h-1.725v-4.485c0-1.2-0.72-1.935-1.92-1.935c-1.319,0.015-2.145,0.93-2.265,2.175v4.245
		h-1.725v-7.979h1.725v1.53c0.57-1.11,1.59-1.59,2.939-1.59C78.971,207.411,80.08,208.581,80.08,210.486z"/>
	<path class="st1" d="M86.906,214.941c-0.63,0.375-1.29,0.585-1.965,0.585c-1.2,0-2.235-0.69-2.235-2.325v-4.14h-1.125v-1.29h1.125
		v-2.19h1.71v2.19h2.354v1.29h-2.354v3.825c0,0.825,0.315,1.08,0.855,1.08c0.359,0,0.734-0.12,1.199-0.345L86.906,214.941z"/>
	<path class="st1" d="M94.195,215.451l-3.09-7.979h1.8l2.221,6.284l2.189-6.284h1.725l-3.06,7.979H94.195z"/>
	<path class="st1" d="M102.101,205.191c0,0.6-0.435,1.035-1.005,1.035s-1.005-0.435-1.005-1.035c0-0.615,0.435-1.05,1.005-1.05
		S102.101,204.576,102.101,205.191z M100.241,215.451v-7.979h1.71v7.979H100.241z"/>
	<path class="st1" d="M111.07,208.716l-0.945,1.11c-0.555-0.57-1.319-0.915-2.279-0.9c-1.38,0-2.37,1.035-2.37,2.55
		c0,1.515,0.99,2.55,2.37,2.55c1.005,0,1.814-0.33,2.354-0.96l0.96,0.96c-0.72,0.944-1.875,1.484-3.39,1.484
		c-2.37,0-4.02-1.635-4.02-4.034c0-2.415,1.649-4.065,4.02-4.065C109.21,207.411,110.335,207.876,111.07,208.716z"/>
	<path class="st1" d="M117.476,214.941c-0.63,0.375-1.29,0.585-1.965,0.585c-1.2,0-2.235-0.69-2.235-2.325v-4.14h-1.125v-1.29h1.125
		v-2.19h1.71v2.19h2.354v1.29h-2.354v3.825c0,0.825,0.315,1.08,0.855,1.08c0.359,0,0.734-0.12,1.199-0.345L117.476,214.941z"/>
	<path class="st1" d="M120.926,205.191c0,0.6-0.435,1.035-1.005,1.035s-1.005-0.435-1.005-1.035c0-0.615,0.435-1.05,1.005-1.05
		S120.926,204.576,120.926,205.191z M119.067,215.451v-7.979h1.71v7.979H119.067z"/>
	<path class="st1" d="M136.66,210.486v4.965h-1.725v-4.485c0-1.215-0.721-1.95-1.891-1.95c-1.364,0.045-2.189,1.095-2.189,2.49
		v3.945h-1.725v-4.485c0-1.215-0.705-1.95-1.875-1.95c-1.38,0.045-2.22,1.095-2.22,2.49v3.945h-1.71v-7.979h1.71v1.545
		c0.555-1.125,1.574-1.605,2.895-1.605c1.425,0,2.399,0.705,2.774,1.92c0.511-1.335,1.575-1.92,3.03-1.92
		C135.566,207.411,136.66,208.581,136.66,210.486z"/>
</g>
<path class="st0" d="M359.822,39.617H231.393c-8.168,0-14.851-6.683-14.851-14.851v0c0-8.168,6.683-14.851,14.851-14.851h128.429
	c8.168,0,14.851,6.683,14.851,14.851v0C374.673,32.934,367.99,39.617,359.822,39.617z"/>
<g>
	<path class="st1" d="M241.653,27.869l-1.005,2.37h-1.846l4.635-10.5h1.815l4.59,10.5h-1.89l-1.005-2.37H241.653z M244.293,21.629
		l-1.98,4.665h3.96L244.293,21.629z"/>
	<path class="st1" d="M257.312,23.504l-0.945,1.11c-0.555-0.57-1.319-0.915-2.279-0.9c-1.38,0-2.37,1.035-2.37,2.55
		c0,1.515,0.99,2.55,2.37,2.55c1.005,0,1.814-0.33,2.354-0.96l0.96,0.96c-0.72,0.945-1.875,1.485-3.39,1.485
		c-2.37,0-4.02-1.635-4.02-4.035c0-2.415,1.649-4.065,4.02-4.065C255.452,22.2,256.577,22.665,257.312,23.504z"/>
	<path class="st1" d="M265.458,23.504l-0.945,1.11c-0.555-0.57-1.319-0.915-2.279-0.9c-1.38,0-2.37,1.035-2.37,2.55
		c0,1.515,0.99,2.55,2.37,2.55c1.005,0,1.814-0.33,2.354-0.96l0.96,0.96c-0.72,0.945-1.875,1.485-3.39,1.485
		c-2.37,0-4.02-1.635-4.02-4.035c0-2.415,1.649-4.065,4.02-4.065C263.597,22.2,264.722,22.665,265.458,23.504z"/>
	<path class="st1" d="M269.208,19.98c0,0.6-0.435,1.035-1.005,1.035s-1.005-0.435-1.005-1.035c0-0.615,0.435-1.05,1.005-1.05
		S269.208,19.365,269.208,19.98z M267.348,30.239V22.26h1.71v7.979H267.348z"/>
	<path class="st1" d="M279.213,30.239h-1.726v-1.365c-0.569,0.93-1.529,1.44-2.805,1.44c-2.295,0-3.824-1.665-3.824-4.095
		c0-2.4,1.545-4.035,3.795-4.035c1.289,0,2.249,0.525,2.834,1.455v-4.53h1.726V30.239z M277.487,26.279
		c0-1.545-1.005-2.625-2.444-2.625c-1.44,0-2.445,1.095-2.46,2.625c0.015,1.515,1.005,2.595,2.46,2.595
		C276.482,28.875,277.487,27.794,277.487,26.279z"/>
	<path class="st1" d="M288.857,26.909h-6.03c0.271,1.23,1.215,1.995,2.476,1.995c0.869,0,1.664-0.33,2.249-0.93l0.915,0.975
		c-0.779,0.855-1.92,1.35-3.3,1.35c-2.46,0-4.079-1.635-4.079-4.035c0-2.415,1.664-4.05,4.034-4.065
		C287.926,22.2,289.067,24.029,288.857,26.909z M287.357,25.649c-0.061-1.29-0.915-2.07-2.22-2.07c-1.261,0-2.146,0.795-2.34,2.07
		H287.357z"/>
	<path class="st1" d="M298.292,25.274v4.965h-1.725v-4.485c0-1.2-0.72-1.935-1.92-1.935c-1.319,0.015-2.145,0.93-2.265,2.175v4.245
		h-1.725V22.26h1.725v1.53c0.57-1.11,1.59-1.59,2.939-1.59C297.182,22.2,298.292,23.37,298.292,25.274z"/>
	<path class="st1" d="M305.118,29.73c-0.63,0.375-1.29,0.585-1.965,0.585c-1.2,0-2.235-0.69-2.235-2.325v-4.14h-1.125v-1.29h1.125
		v-2.19h1.71v2.19h2.354v1.29h-2.354v3.825c0,0.825,0.315,1.08,0.855,1.08c0.359,0,0.734-0.12,1.199-0.345L305.118,29.73z"/>
	<path class="st1" d="M312.407,30.239l-3.09-7.979h1.8l2.221,6.285l2.189-6.285h1.725l-3.06,7.979H312.407z"/>
	<path class="st1" d="M320.312,19.98c0,0.6-0.435,1.035-1.005,1.035s-1.005-0.435-1.005-1.035c0-0.615,0.435-1.05,1.005-1.05
		S320.312,19.365,320.312,19.98z M318.453,30.239V22.26h1.71v7.979H318.453z"/>
	<path class="st1" d="M329.282,23.504l-0.945,1.11c-0.555-0.57-1.319-0.915-2.279-0.9c-1.38,0-2.37,1.035-2.37,2.55
		c0,1.515,0.99,2.55,2.37,2.55c1.005,0,1.814-0.33,2.354-0.96l0.96,0.96c-0.72,0.945-1.875,1.485-3.39,1.485
		c-2.37,0-4.02-1.635-4.02-4.035c0-2.415,1.649-4.065,4.02-4.065C327.422,22.2,328.547,22.665,329.282,23.504z"/>
	<path class="st1" d="M335.687,29.73c-0.63,0.375-1.29,0.585-1.965,0.585c-1.2,0-2.235-0.69-2.235-2.325v-4.14h-1.125v-1.29h1.125
		v-2.19h1.71v2.19h2.354v1.29h-2.354v3.825c0,0.825,0.315,1.08,0.855,1.08c0.359,0,0.734-0.12,1.199-0.345L335.687,29.73z"/>
	<path class="st1" d="M339.137,19.98c0,0.6-0.435,1.035-1.005,1.035s-1.005-0.435-1.005-1.035c0-0.615,0.435-1.05,1.005-1.05
		S339.137,19.365,339.137,19.98z M337.278,30.239V22.26h1.71v7.979H337.278z"/>
	<path class="st1" d="M354.872,25.274v4.965h-1.725v-4.485c0-1.215-0.721-1.95-1.891-1.95c-1.364,0.045-2.189,1.095-2.189,2.49
		v3.945h-1.725v-4.485c0-1.215-0.705-1.95-1.875-1.95c-1.38,0.045-2.22,1.095-2.22,2.49v3.945h-1.71V22.26h1.71v1.545
		c0.555-1.125,1.574-1.605,2.895-1.605c1.425,0,2.399,0.705,2.774,1.92c0.511-1.335,1.575-1.92,3.03-1.92
		C353.777,22.2,354.872,23.37,354.872,25.274z"/>
</g>
<path class="st0" d="M156.879,221.828H28.45c-8.168,0-14.851-6.683-14.851-14.851v0c0-8.168,6.683-14.851,14.851-14.851h128.429
	c8.168,0,14.851,6.683,14.851,14.851v0C171.729,215.145,165.046,221.828,156.879,221.828z"/>
<g>
	<path class="st1" d="M38.709,210.081l-1.005,2.37h-1.846l4.635-10.5h1.815l4.59,10.5h-1.89l-1.005-2.37H38.709z M41.349,203.841
		l-1.98,4.665h3.96L41.349,203.841z"/>
	<path class="st1" d="M54.368,205.716l-0.945,1.11c-0.555-0.57-1.319-0.915-2.279-0.9c-1.38,0-2.37,1.035-2.37,2.55
		c0,1.515,0.99,2.55,2.37,2.55c1.005,0,1.814-0.33,2.354-0.96l0.96,0.96c-0.72,0.945-1.875,1.485-3.39,1.485
		c-2.37,0-4.02-1.635-4.02-4.035c0-2.415,1.649-4.065,4.02-4.065C52.508,204.411,53.633,204.876,54.368,205.716z"/>
	<path class="st1" d="M62.514,205.716l-0.945,1.11c-0.555-0.57-1.319-0.915-2.279-0.9c-1.38,0-2.37,1.035-2.37,2.55
		c0,1.515,0.99,2.55,2.37,2.55c1.005,0,1.814-0.33,2.354-0.96l0.96,0.96c-0.72,0.945-1.875,1.485-3.39,1.485
		c-2.37,0-4.02-1.635-4.02-4.035c0-2.415,1.649-4.065,4.02-4.065C60.653,204.411,61.778,204.876,62.514,205.716z"/>
	<path class="st1" d="M66.264,202.191c0,0.6-0.435,1.035-1.005,1.035s-1.005-0.435-1.005-1.035c0-0.615,0.435-1.05,1.005-1.05
		S66.264,201.576,66.264,202.191z M64.404,212.451v-7.979h1.71v7.979H64.404z"/>
	<path class="st1" d="M76.269,212.451h-1.726v-1.365c-0.569,0.93-1.529,1.44-2.805,1.44c-2.295,0-3.824-1.665-3.824-4.095
		c0-2.4,1.545-4.035,3.795-4.035c1.289,0,2.249,0.525,2.834,1.455v-4.53h1.726V212.451z M74.543,208.491
		c0-1.545-1.005-2.625-2.444-2.625c-1.44,0-2.445,1.095-2.46,2.625c0.015,1.515,1.005,2.595,2.46,2.595
		C73.538,211.086,74.543,210.006,74.543,208.491z"/>
	<path class="st1" d="M85.913,209.121h-6.03c0.271,1.23,1.215,1.995,2.476,1.995c0.869,0,1.664-0.33,2.249-0.93l0.915,0.975
		c-0.779,0.855-1.92,1.35-3.3,1.35c-2.46,0-4.079-1.635-4.079-4.035c0-2.415,1.664-4.05,4.034-4.065
		C84.983,204.411,86.123,206.241,85.913,209.121z M84.413,207.861c-0.061-1.29-0.915-2.07-2.22-2.07c-1.261,0-2.146,0.795-2.34,2.07
		H84.413z"/>
	<path class="st1" d="M95.348,207.486v4.965h-1.725v-4.485c0-1.2-0.72-1.935-1.92-1.935c-1.319,0.015-2.145,0.93-2.265,2.175v4.245
		h-1.725v-7.979h1.725v1.53c0.57-1.11,1.59-1.59,2.939-1.59C94.238,204.411,95.348,205.581,95.348,207.486z"/>
	<path class="st1" d="M102.174,211.941c-0.63,0.375-1.29,0.585-1.965,0.585c-1.2,0-2.235-0.69-2.235-2.325v-4.14h-1.125v-1.29h1.125
		v-2.19h1.71v2.19h2.354v1.29h-2.354v3.825c0,0.825,0.315,1.08,0.855,1.08c0.359,0,0.734-0.12,1.199-0.345L102.174,211.941z"/>
	<path class="st1" d="M109.463,212.451l-3.09-7.979h1.8l2.221,6.285l2.189-6.285h1.725l-3.06,7.979H109.463z"/>
	<path class="st1" d="M117.368,202.191c0,0.6-0.435,1.035-1.005,1.035s-1.005-0.435-1.005-1.035c0-0.615,0.435-1.05,1.005-1.05
		S117.368,201.576,117.368,202.191z M115.509,212.451v-7.979h1.71v7.979H115.509z"/>
	<path class="st1" d="M126.338,205.716l-0.945,1.11c-0.555-0.57-1.319-0.915-2.279-0.9c-1.38,0-2.37,1.035-2.37,2.55
		c0,1.515,0.99,2.55,2.37,2.55c1.005,0,1.814-0.33,2.354-0.96l0.96,0.96c-0.72,0.945-1.875,1.485-3.39,1.485
		c-2.37,0-4.02-1.635-4.02-4.035c0-2.415,1.649-4.065,4.02-4.065C124.478,204.411,125.603,204.876,126.338,205.716z"/>
	<path class="st1" d="M132.743,211.941c-0.63,0.375-1.29,0.585-1.965,0.585c-1.2,0-2.235-0.69-2.235-2.325v-4.14h-1.125v-1.29h1.125
		v-2.19h1.71v2.19h2.354v1.29h-2.354v3.825c0,0.825,0.315,1.08,0.855,1.08c0.359,0,0.734-0.12,1.199-0.345L132.743,211.941z"/>
	<path class="st1" d="M136.194,202.191c0,0.6-0.435,1.035-1.005,1.035s-1.005-0.435-1.005-1.035c0-0.615,0.435-1.05,1.005-1.05
		S136.194,201.576,136.194,202.191z M134.334,212.451v-7.979h1.71v7.979H134.334z"/>
	<path class="st1" d="M151.928,207.486v4.965h-1.725v-4.485c0-1.215-0.721-1.95-1.891-1.95c-1.364,0.045-2.189,1.095-2.189,2.49
		v3.945h-1.725v-4.485c0-1.215-0.705-1.95-1.875-1.95c-1.38,0.045-2.22,1.095-2.22,2.49v3.945h-1.71v-7.979h1.71v1.545
		c0.555-1.125,1.574-1.605,2.895-1.605c1.425,0,2.399,0.705,2.774,1.92c0.511-1.335,1.575-1.92,3.03-1.92
		C150.833,204.411,151.928,205.581,151.928,207.486z"/>
</g>
<line class="st2" x1="294.289" y1="192.451" x2="294.289" y2="39.451"/>
<line class="st3" x1="92.289" y1="192.451" x2="92.289" y2="116.451"/>
<line class="st3" x1="92.289" y1="116.451" x2="501.05" y2="119.718"/>
<line class="st3" x1="501.289" y1="119.451" x2="501.289" y2="192.451"/>
<g>
	<rect x="299.543" y="85.211" class="st4" width="173.55" height="21.127"/>
	<path class="st5" d="M311.266,94.115l-4.474-6.021v6.021h-1.415V85.72h1.392l4.497,6.033V85.72h1.392v8.396H311.266z"/>
	<path class="st5" d="M320.411,91.453h-4.822c0.217,0.983,0.972,1.595,1.979,1.595c0.695,0,1.331-0.264,1.799-0.744l0.731,0.78
		c-0.623,0.684-1.535,1.079-2.639,1.079c-1.967,0-3.262-1.307-3.262-3.226c0-1.931,1.331-3.238,3.226-3.25
		C319.667,87.687,320.578,89.15,320.411,91.453z M319.211,90.445c-0.048-1.032-0.731-1.655-1.774-1.655
		c-1.008,0-1.715,0.636-1.871,1.655H319.211z"/>
	<path class="st5" d="M327.466,91.453h-4.822c0.217,0.983,0.972,1.595,1.979,1.595c0.695,0,1.331-0.264,1.799-0.744l0.731,0.78
		c-0.623,0.684-1.535,1.079-2.639,1.079c-1.967,0-3.262-1.307-3.262-3.226c0-1.931,1.331-3.238,3.227-3.25
		C326.722,87.687,327.633,89.15,327.466,91.453z M326.266,90.445c-0.048-1.032-0.731-1.655-1.774-1.655
		c-1.008,0-1.715,0.636-1.871,1.655H326.266z"/>
	<path class="st5" d="M334.99,94.115h-1.38v-1.091c-0.456,0.744-1.224,1.151-2.242,1.151c-1.835,0-3.059-1.332-3.059-3.274
		c0-1.919,1.235-3.226,3.034-3.226c1.031,0,1.799,0.42,2.267,1.164v-3.622h1.38V94.115z M333.61,90.949
		c0-1.235-0.804-2.099-1.955-2.099s-1.955,0.875-1.967,2.099c0.012,1.211,0.804,2.075,1.967,2.075
		C332.806,93.024,333.61,92.16,333.61,90.949z"/>
	<path class="st5" d="M343.798,93.708c-0.504,0.3-1.032,0.468-1.571,0.468c-0.96,0-1.787-0.552-1.787-1.859v-3.311h-0.899v-1.031
		h0.899v-1.751h1.367v1.751h1.883v1.031h-1.883v3.059c0,0.66,0.252,0.863,0.684,0.863c0.288,0,0.588-0.096,0.959-0.276
		L343.798,93.708z"/>
	<path class="st5" d="M351.056,90.925c0,1.919-1.355,3.238-3.322,3.238c-1.979,0-3.334-1.319-3.334-3.238
		c0-1.931,1.355-3.238,3.334-3.238C349.701,87.687,351.056,88.994,351.056,90.925z M345.779,90.937c0,1.235,0.804,2.075,1.955,2.075
		c1.14,0,1.943-0.839,1.943-2.075c0-1.223-0.804-2.063-1.943-2.063C346.583,88.874,345.779,89.714,345.779,90.937z"/>
	<path class="st5" d="M360.848,88.73l-0.756,0.888c-0.443-0.456-1.055-0.731-1.822-0.72c-1.104,0-1.896,0.828-1.896,2.039
		s0.792,2.039,1.896,2.039c0.803,0,1.451-0.264,1.883-0.768l0.768,0.768c-0.576,0.755-1.499,1.187-2.711,1.187
		c-1.895,0-3.214-1.307-3.214-3.226c0-1.931,1.319-3.25,3.214-3.25C359.361,87.687,360.26,88.059,360.848,88.73z"/>
	<path class="st5" d="M368.168,90.925c0,1.919-1.355,3.238-3.322,3.238c-1.979,0-3.334-1.319-3.334-3.238
		c0-1.931,1.355-3.238,3.334-3.238C366.812,87.687,368.168,88.994,368.168,90.925z M362.89,90.937c0,1.235,0.804,2.075,1.955,2.075
		c1.14,0,1.943-0.839,1.943-2.075c0-1.223-0.804-2.063-1.943-2.063C363.694,88.874,362.89,89.714,362.89,90.937z"/>
	<path class="st5" d="M380.273,90.146v3.97h-1.379v-3.586c0-0.972-0.576-1.559-1.512-1.559c-1.091,0.036-1.751,0.875-1.751,1.991
		v3.154h-1.379v-3.586c0-0.972-0.563-1.559-1.499-1.559c-1.104,0.036-1.775,0.875-1.775,1.991v3.154h-1.367v-6.38h1.367v1.235
		c0.443-0.899,1.26-1.283,2.314-1.283c1.14,0,1.919,0.563,2.219,1.535c0.408-1.068,1.26-1.535,2.423-1.535
		C379.397,87.687,380.273,88.622,380.273,90.146z"/>
	<path class="st5" d="M392.789,90.146v3.97h-1.379v-3.586c0-0.972-0.576-1.559-1.512-1.559c-1.091,0.036-1.751,0.875-1.751,1.991
		v3.154h-1.379v-3.586c0-0.972-0.563-1.559-1.499-1.559c-1.104,0.036-1.775,0.875-1.775,1.991v3.154h-1.367v-6.38h1.367v1.235
		c0.443-0.899,1.26-1.283,2.314-1.283c1.14,0,1.919,0.563,2.219,1.535c0.408-1.068,1.26-1.535,2.423-1.535
		C391.913,87.687,392.789,88.622,392.789,90.146z"/>
	<path class="st5" d="M400.435,94.115h-1.38v-1.248c-0.432,0.888-1.235,1.284-2.278,1.295c-1.463,0-2.339-0.936-2.339-2.458v-3.97
		h1.379v3.586c0,0.959,0.564,1.547,1.487,1.547c1.104-0.024,1.751-0.875,1.751-1.991v-3.142h1.38V94.115z"/>
	<path class="st5" d="M408.583,90.146v3.97h-1.379v-3.586c0-0.959-0.576-1.547-1.535-1.547c-1.056,0.012-1.716,0.744-1.812,1.739
		v3.394h-1.379v-6.38h1.379v1.223c0.456-0.887,1.271-1.271,2.351-1.271C407.695,87.687,408.583,88.622,408.583,90.146z"/>
	<path class="st5" d="M411.922,85.912c0,0.48-0.348,0.828-0.804,0.828s-0.804-0.348-0.804-0.828c0-0.492,0.348-0.839,0.804-0.839
		S411.922,85.42,411.922,85.912z M410.434,94.115v-6.38h1.367v6.38H410.434z"/>
	<path class="st5" d="M419.095,88.73l-0.756,0.888c-0.443-0.456-1.055-0.731-1.822-0.72c-1.104,0-1.896,0.828-1.896,2.039
		s0.792,2.039,1.896,2.039c0.803,0,1.451-0.264,1.883-0.768l0.768,0.768c-0.576,0.755-1.499,1.187-2.711,1.187
		c-1.895,0-3.214-1.307-3.214-3.226c0-1.931,1.319-3.25,3.214-3.25C417.608,87.687,418.507,88.059,419.095,88.73z"/>
	<path class="st5" d="M424.173,93.335c-0.456,0.564-1.188,0.84-2.111,0.84c-1.379,0-2.242-0.852-2.242-1.979
		c0-1.164,0.875-1.907,2.41-1.919h1.931v-0.192c0-0.804-0.516-1.283-1.522-1.283c-0.612,0-1.248,0.216-1.884,0.647l-0.563-0.959
		c0.888-0.528,1.535-0.803,2.747-0.803c1.643,0,2.566,0.839,2.578,2.243l0.012,4.186h-1.354V93.335z M424.16,91.873v-0.588h-1.727
		c-0.899,0-1.319,0.24-1.319,0.852c0,0.576,0.468,0.948,1.235,0.948C423.333,93.084,424.089,92.568,424.16,91.873z"/>
	<path class="st5" d="M430.989,93.708c-0.504,0.3-1.032,0.468-1.571,0.468c-0.96,0-1.787-0.552-1.787-1.859v-3.311h-0.899v-1.031
		h0.899v-1.751h1.367v1.751h1.883v1.031h-1.883v3.059c0,0.66,0.252,0.863,0.684,0.863c0.288,0,0.588-0.096,0.959-0.276
		L430.989,93.708z"/>
	<path class="st5" d="M437.803,91.453h-4.822c0.217,0.983,0.972,1.595,1.979,1.595c0.695,0,1.331-0.264,1.799-0.744l0.731,0.78
		c-0.623,0.684-1.535,1.079-2.639,1.079c-1.967,0-3.262-1.307-3.262-3.226c0-1.931,1.331-3.238,3.226-3.25
		C437.059,87.687,437.97,89.15,437.803,91.453z M436.603,90.445c-0.048-1.032-0.731-1.655-1.774-1.655
		c-1.008,0-1.715,0.636-1.871,1.655H436.603z"/>
	<path class="st5" d="M448.339,94.115l-1.619-4.726l-1.619,4.726h-1.416l-2.351-6.38h1.415l1.655,5.013l1.607-5.013h1.427
		l1.619,5.013l1.632-5.013h1.403l-2.327,6.38H448.339z"/>
	<path class="st5" d="M454.545,85.912c0,0.48-0.348,0.828-0.804,0.828s-0.804-0.348-0.804-0.828c0-0.492,0.348-0.839,0.804-0.839
		S454.545,85.42,454.545,85.912z M453.057,94.115v-6.38h1.367v6.38H453.057z"/>
	<path class="st5" d="M460.076,93.708c-0.504,0.3-1.032,0.468-1.571,0.468c-0.96,0-1.787-0.552-1.787-1.859v-3.311h-0.899v-1.031
		h0.899v-1.751h1.367v1.751h1.883v1.031h-1.883v3.059c0,0.66,0.252,0.863,0.684,0.863c0.288,0,0.588-0.096,0.959-0.276
		L460.076,93.708z"/>
	<path class="st5" d="M467.526,90.146v3.97h-1.38v-3.586c0-0.959-0.575-1.547-1.535-1.547c-1.139,0.012-1.822,0.864-1.822,1.991
		v3.142h-1.38v-8.899h1.38v3.766c0.455-0.899,1.271-1.295,2.362-1.295C466.638,87.687,467.526,88.622,467.526,90.146z"/>
</g>
</svg>
