<?xml version="1.0" encoding="utf-8"?>
<!-- Generator: Adobe Illustrator 19.1.0, SVG Export Plug-In . SVG Version: 6.00 Build 0)  -->
<svg version="1.0" id="Layer_1" xmlns="http://www.w3.org/2000/svg" xmlns:xlink="http://www.w3.org/1999/xlink" x="0px" y="0px"
	 width="1280px" height="470.588px" viewBox="0 0 1280 470.588" style="enable-background:new 0 0 1280 470.588;"
	 xml:space="preserve">
<style type="text/css">
	.st0{fill:#27AE60;}
	.st1{fill:none;}
	.st2{fill:#FFFFFF;}
	.st3{fill:#2980B9;}
	.st4{fill:#F1C40F;}
	.st5{fill:#C0392B;}
	.st6{fill:none;stroke:#754C24;stroke-width:4;stroke-miterlimit:10;}
	.st7{fill:#754C24;}
</style>
<g>
	<path class="st0" d="M257.529,175.588H22c-2.209,0-4-1.791-4-4V71.353c0-2.209,1.791-4,4-4h235.529c2.209,0,4,1.791,4,4v100.235
		C261.529,173.797,259.738,175.588,257.529,175.588z"/>
	<g>
		<rect x="36.529" y="106.471" class="st1" width="206.471" height="30"/>
		<path class="st2" d="M50.496,126.09h-0.18h-4.859v7.091h-6.407v-25.197h11.267c6.659,0,10.475,3.167,10.475,8.783
			c0,3.852-1.62,6.623-4.571,8.099l5.292,8.315h-7.271L50.496,126.09z M50.315,121.051c2.772,0,4.392-1.404,4.392-4.067
			c0-2.628-1.62-3.959-4.392-3.959h-4.859v8.027H50.315z"/>
		<path class="st2" d="M71.52,113.024v5.003h12.022v5.04H71.52v5.075h13.714v5.04H65.113v-25.197h19.726v5.04H71.52z"/>
		<path class="st2" d="M108.994,110.504l-2.412,5.003c-2.664-1.548-6.011-2.627-8.063-2.627c-1.656,0-2.771,0.612-2.771,1.835
			c0,4.355,13.318,1.872,13.318,10.979c0,5.04-4.463,7.703-10.079,7.703c-4.211,0-8.531-1.583-11.519-4.031l2.484-4.932
			c2.592,2.268,6.479,3.78,9.107,3.78c2.016,0,3.275-0.756,3.275-2.196c0-4.463-13.318-1.8-13.318-10.727
			c0-4.644,3.996-7.595,10.043-7.595C102.695,107.697,106.402,108.813,108.994,110.504z"/>
		<path class="st2" d="M118.968,113.024v5.003h12.022v5.04h-12.022v5.075h13.714v5.04h-20.122v-25.197h19.726v5.04H118.968z"/>
		<path class="st2" d="M142.548,128.538l-1.836,4.644h-6.587l10.871-25.197h6.587l10.619,25.197h-6.839l-1.799-4.644H142.548z
			 M148.091,114.356l-3.671,9.323h7.271L148.091,114.356z"/>
		<path class="st2" d="M175.991,126.09h-0.18h-4.859v7.091h-6.407v-25.197h11.267c6.659,0,10.475,3.167,10.475,8.783
			c0,3.852-1.62,6.623-4.571,8.099l5.292,8.315h-7.271L175.991,126.09z M175.811,121.051c2.772,0,4.392-1.404,4.392-4.067
			c0-2.628-1.62-3.959-4.392-3.959h-4.859v8.027H175.811z"/>
		<path class="st2" d="M212.565,112.016l-3.708,4.392c-1.655-2.016-4.103-3.275-6.335-3.275c-3.996,0-7.019,3.167-7.019,7.307
			c0,4.211,3.023,7.415,7.019,7.415c2.124,0,4.571-1.152,6.335-2.952l3.744,3.959c-2.7,2.771-6.695,4.607-10.403,4.607
			c-7.595,0-13.247-5.58-13.247-12.958c0-7.271,5.795-12.742,13.462-12.742C206.158,107.769,210.046,109.425,212.565,112.016z"/>
		<path class="st2" d="M232.365,133.182v-9.791h-10.438v9.791h-6.407v-25.197h6.407v10.367h10.438v-10.367h6.407v25.197H232.365z"/>
	</g>
</g>
<path class="st3" d="M586,175.588H350.471c-2.209,0-4-1.791-4-4V71.353c0-2.209,1.791-4,4-4H586c2.209,0,4,1.791,4,4v100.235
	C590,173.797,588.209,175.588,586,175.588z"/>
<g>
	<rect x="400.706" y="106.471" class="st1" width="135.059" height="30"/>
	<path class="st2" d="M403.226,133.182v-25.196h6.407v25.196H403.226z"/>
	<path class="st2" d="M425.508,107.985c7.919,0,13.39,5.111,13.39,12.598c0,7.451-5.543,12.599-13.642,12.599h-10.583v-25.196
		H425.508z M421.081,128.07h4.572c3.923,0,6.731-3.023,6.731-7.451c0-4.463-2.952-7.522-7.019-7.522h-4.284V128.07z"/>
	<path class="st2" d="M448.692,113.024v5.003h12.022v5.04h-12.022v5.075h13.714v5.039h-20.122v-25.196h19.726v5.039H448.692z"/>
	<path class="st2" d="M472.272,128.538l-1.836,4.644h-6.587l10.871-25.196h6.587l10.619,25.196h-6.839l-1.799-4.644H472.272z
		 M477.815,114.357l-3.671,9.322h7.271L477.815,114.357z"/>
	<path class="st2" d="M503.231,113.133v20.049h-6.407v-20.049h-7.523v-5.184h21.525v5.184H503.231z"/>
	<path class="st2" d="M519.972,113.024v5.003h12.022v5.04h-12.022v5.075h13.714v5.039h-20.122v-25.196h19.726v5.039H519.972z"/>
</g>
<path class="st4" d="M921.176,175.588H685.647c-2.209,0-4-1.791-4-4V71.353c0-2.209,1.791-4,4-4h235.529c2.209,0,4,1.791,4,4
	v100.235C925.176,173.797,923.385,175.588,921.176,175.588z"/>
<g>
	<rect x="690.912" y="106.471" class="st1" width="225" height="30"/>
	<path class="st2" d="M704.409,107.985c6.443,0,10.15,3.167,10.15,8.783c0,5.903-3.707,9.323-10.15,9.323h-4.571v7.091h-6.407
		v-25.197H704.409z M699.838,121.052h4.247c2.808,0,4.428-1.404,4.428-4.067c0-2.628-1.62-3.96-4.428-3.96h-4.247V121.052z"/>
	<path class="st2" d="M729.357,126.091h-0.181h-4.859v7.091h-6.407v-25.197h11.267c6.659,0,10.475,3.167,10.475,8.783
		c0,3.852-1.619,6.624-4.571,8.099l5.292,8.315h-7.271L729.357,126.091z M729.177,121.052c2.772,0,4.392-1.404,4.392-4.067
		c0-2.628-1.619-3.96-4.392-3.96h-4.859v8.027H729.177z"/>
	<path class="st2" d="M769.567,120.548c0,7.343-5.831,12.922-13.643,12.922c-7.774,0-13.606-5.543-13.606-12.922
		c0-7.343,5.832-12.778,13.606-12.778C763.736,107.77,769.567,113.241,769.567,120.548z M748.87,120.584
		c0,4.248,3.275,7.523,7.127,7.523c3.888,0,6.983-3.276,6.983-7.523c0-4.247-3.096-7.451-6.983-7.451S748.87,116.336,748.87,120.584
		z"/>
	<path class="st2" d="M783.789,113.133v20.049h-6.407v-20.049h-7.522v-5.184h21.525v5.184H783.789z"/>
	<path class="st2" d="M818.419,120.548c0,7.343-5.831,12.922-13.642,12.922c-7.775,0-13.606-5.543-13.606-12.922
		c0-7.343,5.831-12.778,13.606-12.778C812.588,107.77,818.419,113.241,818.419,120.548z M797.722,120.584
		c0,4.248,3.275,7.523,7.127,7.523c3.888,0,6.983-3.276,6.983-7.523c0-4.247-3.096-7.451-6.983-7.451
		C800.962,113.133,797.722,116.336,797.722,120.584z"/>
	<path class="st2" d="M832.641,113.133v20.049h-6.407v-20.049h-7.522v-5.184h21.525v5.184H832.641z"/>
	<path class="st2" d="M855.969,133.182h-6.371v-7.955l-9.323-17.242h6.407l6.083,10.979l5.939-10.979h6.407l-9.143,17.062V133.182z"
		/>
	<path class="st2" d="M878.433,107.985c6.443,0,10.151,3.167,10.151,8.783c0,5.903-3.708,9.323-10.151,9.323h-4.571v7.091h-6.407
		v-25.197H878.433z M873.861,121.052h4.248c2.808,0,4.427-1.404,4.427-4.067c0-2.628-1.619-3.96-4.427-3.96h-4.248V121.052z"/>
	<path class="st2" d="M898.341,113.024v5.003h12.022v5.04h-12.022v5.075h13.715v5.04h-20.122v-25.197h19.726v5.039H898.341z"/>
</g>
<path class="st5" d="M1258.647,175.588h-235.529c-2.209,0-4-1.791-4-4V71.353c0-2.209,1.791-4,4-4h235.529c2.209,0,4,1.791,4,4
	v100.235C1262.647,173.797,1260.856,175.588,1258.647,175.588z"/>
<g>
	<rect x="1048.235" y="106.471" class="st1" width="196.235" height="30"/>
	<path class="st2" d="M1057.162,113.024v5.003h12.022v5.04h-12.022v5.075h13.715v5.04h-20.122v-25.197h19.726v5.039H1057.162z"/>
	<path class="st2" d="M1082.254,133.182l-9.791-25.197h6.84l6.443,18.538l6.442-18.538h6.588l-9.899,25.197H1082.254z"/>
	<path class="st2" d="M1105.043,128.539l-1.836,4.644h-6.588l10.871-25.197h6.587l10.619,25.197h-6.84l-1.799-4.644H1105.043z
		 M1110.586,114.357l-3.672,9.323h7.271L1110.586,114.357z"/>
	<path class="st2" d="M1144.137,127.819v5.363h-17.098v-25.197h6.407v19.833H1144.137z"/>
	<path class="st2" d="M1169.876,122.6c0,6.659-4.427,10.871-11.482,10.871c-7.091,0-11.626-4.211-11.626-10.871v-14.614h6.407V122.6
		c0,3.419,2.195,5.507,5.255,5.507c3.023,0,5.075-2.088,5.075-5.507v-14.614h6.371V122.6z"/>
	<path class="st2" d="M1179.491,128.539l-1.836,4.644h-6.588l10.871-25.197h6.587l10.619,25.197h-6.84l-1.799-4.644H1179.491z
		 M1185.034,114.357l-3.672,9.323h7.271L1185.034,114.357z"/>
	<path class="st2" d="M1210.45,113.133v20.049h-6.407v-20.049h-7.523v-5.184h21.525v5.184H1210.45z"/>
	<path class="st2" d="M1227.19,113.024v5.003h12.022v5.04h-12.022v5.075h13.715v5.04h-20.122v-25.197h19.726v5.039H1227.19z"/>
</g>
<g>
	<rect x="60.794" y="198.272" class="st1" width="157.941" height="22.5"/>
	<path class="st0" d="M62.475,216.079v-16.801h4.272v16.801H62.475z"/>
	<path class="st0" d="M81.843,216.079l-7.729-10.344v10.344h-4.008v-16.801h3.768l7.753,10.369v-10.369h3.984v16.801H81.843z"/>
	<path class="st0" d="M96.747,202.71v13.369h-4.272V202.71h-5.017v-3.456h14.354v3.456H96.747z"/>
	<path class="st0" d="M107.907,202.639v3.336h8.017v3.36h-8.017v3.385h9.145v3.359h-13.417v-16.801h13.153v3.36H107.907z"/>
	<path class="st0" d="M127.443,211.351h-0.12h-3.24v4.729h-4.272v-16.801h7.513c4.44,0,6.984,2.111,6.984,5.856
		c0,2.567-1.08,4.416-3.048,5.4l3.528,5.544h-4.848L127.443,211.351z M127.323,207.991c1.848,0,2.928-0.937,2.928-2.713
		c0-1.752-1.08-2.64-2.928-2.64h-3.24v5.353H127.323z"/>
	<path class="st0" d="M141.842,216.079l-6.528-16.801h4.561l4.296,12.361l4.296-12.361h4.393l-6.601,16.801H141.842z"/>
	<path class="st0" d="M154.514,216.079v-16.801h4.272v16.801H154.514z"/>
	<path class="st0" d="M166.418,202.639v3.336h8.017v3.36h-8.017v3.385h9.145v3.359h-13.417v-16.801h13.153v3.36H166.418z"/>
	<path class="st0" d="M192.819,216.079l-3.12-11.617l-3.168,11.617h-4.416l-5.497-16.801h4.561l3.288,12.361l3.216-12.361h4.176
		l3.288,12.361l3.241-12.361h4.368l-5.544,16.801H192.819z"/>
	<path class="st0" d="M217.346,200.958l-1.608,3.336c-1.776-1.031-4.008-1.752-5.376-1.752c-1.104,0-1.848,0.408-1.848,1.225
		c0,2.904,8.88,1.248,8.88,7.32c0,3.36-2.976,5.137-6.72,5.137c-2.809,0-5.688-1.057-7.681-2.688l1.656-3.288
		c1.729,1.512,4.321,2.52,6.073,2.52c1.344,0,2.184-0.504,2.184-1.463c0-2.977-8.881-1.201-8.881-7.153
		c0-3.097,2.665-5.064,6.697-5.064C213.146,199.086,215.618,199.83,217.346,200.958z"/>
</g>
<g>
	<rect x="48.956" y="249.412" class="st1" width="181.618" height="51.728"/>
	<path class="st0" d="M76.659,263.644v3.576H65.258v-16.801h4.272v13.225H76.659z"/>
	<path class="st0" d="M78.698,267.22v-16.801h4.272v16.801H78.698z"/>
	<path class="st0" d="M94.106,253.851v13.369h-4.272v-13.369h-5.017v-3.456h14.354v3.456H94.106z"/>
	<path class="st0" d="M105.266,253.778v3.337h8.017v3.36h-8.017v3.384h9.145v3.36h-13.417v-16.801h13.153v3.359H105.266z"/>
	<path class="st0" d="M124.802,262.491h-0.12h-3.24v4.729h-4.272v-16.801h7.513c4.44,0,6.984,2.111,6.984,5.856
		c0,2.567-1.08,4.416-3.048,5.4l3.528,5.544h-4.848L124.802,262.491z M124.682,259.131c1.848,0,2.928-0.936,2.928-2.712
		c0-1.752-1.08-2.641-2.928-2.641h-3.24v5.353H124.682z"/>
	<path class="st0" d="M138.362,264.124l-1.224,3.096h-4.393l7.249-16.801h4.393l7.081,16.801h-4.561l-1.2-3.096H138.362z
		 M142.058,254.667l-2.448,6.217h4.848L142.058,254.667z"/>
	<path class="st0" d="M159.002,253.851v13.369h-4.272v-13.369h-5.017v-3.456h14.354v3.456H159.002z"/>
	<path class="st0" d="M181.01,260.163c0,4.44-2.952,7.249-7.656,7.249c-4.729,0-7.753-2.809-7.753-7.249v-9.744h4.272v9.744
		c0,2.28,1.464,3.673,3.504,3.673c2.016,0,3.384-1.393,3.384-3.673v-9.744h4.248V260.163z"/>
	<path class="st0" d="M191.714,262.491h-0.12h-3.24v4.729h-4.272v-16.801h7.513c4.44,0,6.984,2.111,6.984,5.856
		c0,2.567-1.08,4.416-3.048,5.4l3.528,5.544h-4.848L191.714,262.491z M191.594,259.131c1.848,0,2.928-0.936,2.928-2.712
		c0-1.752-1.08-2.641-2.928-2.641h-3.24v5.353H191.594z"/>
	<path class="st0" d="M205.729,253.778v3.337h8.017v3.36h-8.017v3.384h9.145v3.36h-13.417v-16.801h13.153v3.359H205.729z"/>
	<path class="st0" d="M90.95,291.292h-0.12h-3.24v4.729h-4.272v-16.802h7.513c4.44,0,6.984,2.112,6.984,5.856
		c0,2.568-1.08,4.416-3.048,5.4l3.528,5.545h-4.848L90.95,291.292z M90.83,287.932c1.848,0,2.928-0.937,2.928-2.712
		c0-1.753-1.08-2.641-2.928-2.641h-3.24v5.353H90.83z"/>
	<path class="st0" d="M104.966,282.579v3.336h8.017v3.36h-8.017v3.385h9.145v3.36h-13.417v-16.802h13.153v3.36H104.966z"/>
	<path class="st0" d="M121.693,296.021l-6.528-16.802h4.561l4.296,12.361l4.296-12.361h4.393l-6.601,16.802H121.693z"/>
	<path class="st0" d="M134.365,296.021v-16.802h4.272v16.802H134.365z"/>
	<path class="st0" d="M146.269,282.579v3.336h8.017v3.36h-8.017v3.385h9.145v3.36h-13.417v-16.802h13.153v3.36H146.269z"/>
	<path class="st0" d="M172.669,296.021l-3.12-11.617l-3.168,11.617h-4.416l-5.497-16.802h4.561l3.288,12.361l3.216-12.361h4.176
		l3.288,12.361l3.241-12.361h4.368l-5.544,16.802H172.669z"/>
	<path class="st0" d="M197.197,280.899l-1.608,3.336c-1.776-1.032-4.008-1.752-5.376-1.752c-1.104,0-1.848,0.408-1.848,1.224
		c0,2.904,8.88,1.248,8.88,7.32c0,3.36-2.976,5.137-6.72,5.137c-2.809,0-5.688-1.056-7.681-2.688l1.656-3.288
		c1.729,1.513,4.321,2.521,6.073,2.521c1.344,0,2.184-0.504,2.184-1.464c0-2.977-8.881-1.2-8.881-7.153
		c0-3.096,2.665-5.064,6.697-5.064C192.997,279.026,195.469,279.771,197.197,280.899z"/>
</g>
<g>
</g>
<g>
	<rect x="359.551" y="198.379" class="st1" width="217.368" height="22.285"/>
	<path class="st3" d="M369.176,199.385c3.768,0,6.168,1.632,6.168,4.2c0,1.776-1.104,3.192-2.88,3.696
		c2.112,0.408,3.457,2.064,3.457,4.249c0,2.855-2.497,4.656-6.457,4.656h-8.233v-16.802H369.176z M365.48,206.106h3.456
		c1.248,0,2.04-0.672,2.04-1.752s-0.792-1.704-2.04-1.704h-3.456V206.106z M365.48,212.898h3.456c1.584,0,2.568-0.696,2.568-1.896
		c0-1.128-0.984-1.824-2.568-1.824h-3.456V212.898z"/>
	<path class="st3" d="M386.024,211.458h-0.12h-3.24v4.729h-4.272v-16.802h7.513c4.44,0,6.984,2.112,6.984,5.856
		c0,2.568-1.08,4.416-3.048,5.4l3.528,5.545h-4.848L386.024,211.458z M385.904,208.098c1.848,0,2.928-0.937,2.928-2.712
		c0-1.753-1.08-2.641-2.928-2.641h-3.24v5.353H385.904z"/>
	<path class="st3" d="M399.584,213.09l-1.224,3.097h-4.393l7.249-16.802h4.393l7.081,16.802h-4.561l-1.2-3.097H399.584z
		 M403.28,203.633l-2.448,6.217h4.848L403.28,203.633z"/>
	<path class="st3" d="M414.247,216.187v-16.802h4.272v16.802H414.247z"/>
	<path class="st3" d="M433.616,216.187l-7.729-10.345v10.345h-4.008v-16.802h3.768l7.753,10.369v-10.369h3.984v16.802H433.616z"/>
	<path class="st3" d="M453.824,201.065l-1.608,3.336c-1.776-1.032-4.008-1.752-5.376-1.752c-1.104,0-1.848,0.408-1.848,1.224
		c0,2.904,8.88,1.248,8.88,7.32c0,3.36-2.976,5.137-6.72,5.137c-2.809,0-5.688-1.056-7.681-2.688l1.656-3.288
		c1.729,1.513,4.321,2.521,6.073,2.521c1.344,0,2.184-0.504,2.184-1.464c0-2.977-8.881-1.2-8.881-7.153
		c0-3.096,2.665-5.064,6.697-5.064C449.624,199.192,452.096,199.937,453.824,201.065z"/>
	<path class="st3" d="M463.976,202.817v13.369h-4.272v-13.369h-5.017v-3.457h14.354v3.457H463.976z"/>
	<path class="st3" d="M487.064,207.762c0,4.896-3.888,8.616-9.097,8.616c-5.185,0-9.073-3.696-9.073-8.616
		c0-4.896,3.888-8.521,9.073-8.521C483.176,199.241,487.064,202.889,487.064,207.762z M473.263,207.785
		c0,2.833,2.184,5.017,4.752,5.017c2.592,0,4.656-2.184,4.656-5.017c0-2.832-2.064-4.968-4.656-4.968
		S473.263,204.953,473.263,207.785z"/>
	<path class="st3" d="M496.951,211.458h-0.12h-3.24v4.729h-4.272v-16.802h7.513c4.44,0,6.984,2.112,6.984,5.856
		c0,2.568-1.08,4.416-3.048,5.4l3.528,5.545h-4.848L496.951,211.458z M496.831,208.098c1.848,0,2.928-0.937,2.928-2.712
		c0-1.753-1.08-2.641-2.928-2.641h-3.24v5.353H496.831z"/>
	<path class="st3" d="M521.384,216.187l-0.024-10.921l-4.032,9.24h-2.784l-4.032-9.24v10.921h-3.816V199.36h4.68l4.561,10.01
		l4.561-10.01h4.656v16.826H521.384z"/>
	<path class="st3" d="M528.534,216.187v-16.802h4.272v16.802H528.534z"/>
	<path class="st3" d="M547.903,216.187l-7.729-10.345v10.345h-4.008v-16.802h3.768l7.753,10.369v-10.369h3.984v16.802H547.903z"/>
	<path class="st3" d="M569.887,207.642v6.553c-1.8,1.271-4.633,2.184-6.985,2.184c-5.112,0-8.977-3.696-8.977-8.593
		c0-4.872,3.96-8.544,9.265-8.544c2.496,0,5.136,0.96,6.865,2.496l-2.4,2.904c-1.224-1.129-2.928-1.824-4.488-1.824
		c-2.76,0-4.873,2.16-4.873,4.968c0,2.856,2.136,5.017,4.92,5.017c0.864,0,1.968-0.312,2.977-0.815v-4.345H569.887z"/>
</g>
<g>
	<rect x="399.456" y="250.472" class="st1" width="137.559" height="22.5"/>
	<path class="st3" d="M408.457,251.478c4.296,0,6.769,2.112,6.769,5.856c0,3.937-2.472,6.217-6.769,6.217h-3.048v4.729h-4.272
		v-16.802H408.457z M405.409,260.19h2.832c1.872,0,2.952-0.937,2.952-2.712c0-1.753-1.08-2.641-2.952-2.641h-2.832V260.19z"/>
	<path class="st3" d="M421.729,254.838v3.336h8.017v3.36h-8.017v3.385h9.145v3.36h-13.417v-16.802h13.153v3.36H421.729z"/>
	<path class="st3" d="M441.265,263.551h-0.12h-3.24v4.729h-4.272v-16.802h7.513c4.44,0,6.984,2.112,6.984,5.856
		c0,2.568-1.08,4.416-3.048,5.4l3.528,5.545h-4.848L441.265,263.551z M441.145,260.19c1.848,0,2.928-0.937,2.928-2.712
		c0-1.753-1.08-2.641-2.928-2.641h-3.24v5.353H441.145z"/>
	<path class="st3" d="M464.089,253.158l-1.608,3.336c-1.776-1.032-4.008-1.752-5.376-1.752c-1.104,0-1.848,0.408-1.848,1.224
		c0,2.904,8.88,1.248,8.88,7.32c0,3.36-2.976,5.137-6.72,5.137c-2.809,0-5.688-1.056-7.681-2.688l1.656-3.288
		c1.729,1.513,4.321,2.521,6.073,2.521c1.344,0,2.184-0.504,2.184-1.464c0-2.977-8.881-1.2-8.881-7.153
		c0-3.096,2.665-5.064,6.697-5.064C459.889,251.285,462.361,252.029,464.089,253.158z"/>
	<path class="st3" d="M483.529,259.855c0,4.896-3.888,8.616-9.097,8.616c-5.185,0-9.073-3.696-9.073-8.616
		c0-4.896,3.888-8.521,9.073-8.521C479.641,251.334,483.529,254.982,483.529,259.855z M469.728,259.878
		c0,2.833,2.184,5.017,4.752,5.017c2.592,0,4.656-2.184,4.656-5.017c0-2.832-2.064-4.968-4.656-4.968
		S469.728,257.046,469.728,259.878z"/>
	<path class="st3" d="M497.521,268.279l-7.729-10.345v10.345h-4.008v-16.802h3.768l7.753,10.369v-10.369h3.984v16.802H497.521z"/>
	<path class="st3" d="M508.464,265.183l-1.224,3.097h-4.393l7.249-16.802h4.393l7.081,16.802h-4.561l-1.2-3.097H508.464z
		 M512.16,255.726l-2.448,6.217h4.848L512.16,255.726z"/>
	<path class="st3" d="M536.137,253.158l-1.608,3.336c-1.776-1.032-4.008-1.752-5.376-1.752c-1.104,0-1.848,0.408-1.848,1.224
		c0,2.904,8.88,1.248,8.88,7.32c0,3.36-2.976,5.137-6.72,5.137c-2.809,0-5.688-1.056-7.681-2.688l1.656-3.288
		c1.729,1.513,4.321,2.521,6.073,2.521c1.344,0,2.184-0.504,2.184-1.464c0-2.977-8.881-1.2-8.881-7.153
		c0-3.096,2.665-5.064,6.697-5.064C531.937,251.285,534.409,252.029,536.137,253.158z"/>
</g>
<g>
	<rect x="359.257" y="301.139" class="st1" width="217.956" height="22.5"/>
	<path class="st3" d="M374.019,303.825l-1.608,3.336c-1.776-1.031-4.008-1.752-5.376-1.752c-1.104,0-1.848,0.408-1.848,1.225
		c0,2.904,8.88,1.248,8.88,7.32c0,3.36-2.976,5.137-6.72,5.137c-2.809,0-5.688-1.057-7.681-2.688l1.656-3.288
		c1.729,1.512,4.321,2.52,6.073,2.52c1.344,0,2.184-0.504,2.184-1.463c0-2.977-8.881-1.201-8.881-7.153
		c0-3.097,2.665-5.064,6.697-5.064C369.818,301.953,372.291,302.697,374.019,303.825z"/>
	<path class="st3" d="M384.17,305.577v13.369h-4.272v-13.369h-5.017v-3.456h14.354v3.456H384.17z"/>
	<path class="st3" d="M407.259,310.523c0,4.896-3.888,8.616-9.097,8.616c-5.185,0-9.073-3.696-9.073-8.616
		c0-4.896,3.888-8.521,9.073-8.521C403.371,302.001,407.259,305.649,407.259,310.523z M393.458,310.546
		c0,2.832,2.184,5.017,4.752,5.017c2.592,0,4.656-2.185,4.656-5.017s-2.064-4.969-4.656-4.969S393.458,307.714,393.458,310.546z"/>
	<path class="st3" d="M417.146,314.218h-0.12h-3.24v4.729h-4.272v-16.801h7.513c4.44,0,6.984,2.111,6.984,5.856
		c0,2.567-1.08,4.416-3.048,5.4l3.528,5.544h-4.848L417.146,314.218z M417.026,310.858c1.848,0,2.928-0.937,2.928-2.713
		c0-1.752-1.08-2.64-2.928-2.64h-3.24v5.353H417.026z"/>
	<path class="st3" d="M435.386,318.946h-4.248v-5.305l-6.217-11.496h4.272l4.056,7.32l3.96-7.32h4.272l-6.097,11.377V318.946z"/>
	<path class="st3" d="M450.986,302.146c3.768,0,6.168,1.632,6.168,4.2c0,1.776-1.104,3.192-2.88,3.696
		c2.112,0.408,3.457,2.064,3.457,4.248c0,2.856-2.497,4.656-6.457,4.656h-8.233v-16.801H450.986z M447.29,308.866h3.456
		c1.248,0,2.04-0.672,2.04-1.752s-0.792-1.705-2.04-1.705h-3.456V308.866z M447.29,315.659h3.456c1.584,0,2.568-0.697,2.568-1.896
		c0-1.129-0.984-1.824-2.568-1.824h-3.456V315.659z"/>
	<path class="st3" d="M477.267,310.523c0,4.896-3.888,8.616-9.097,8.616c-5.185,0-9.073-3.696-9.073-8.616
		c0-4.896,3.888-8.521,9.073-8.521C473.379,302.001,477.267,305.649,477.267,310.523z M463.466,310.546
		c0,2.832,2.184,5.017,4.752,5.017c2.592,0,4.656-2.185,4.656-5.017s-2.064-4.969-4.656-4.969S463.466,307.714,463.466,310.546z"/>
	<path class="st3" d="M482.882,315.851l-1.224,3.096h-4.393l7.249-16.801h4.393l7.081,16.801h-4.561l-1.2-3.096H482.882z
		 M486.578,306.394l-2.448,6.217h4.848L486.578,306.394z"/>
	<path class="st3" d="M505.179,314.218h-0.12h-3.24v4.729h-4.272v-16.801h7.513c4.44,0,6.984,2.111,6.984,5.856
		c0,2.567-1.08,4.416-3.048,5.4l3.528,5.544h-4.848L505.179,314.218z M505.059,310.858c1.848,0,2.928-0.937,2.928-2.713
		c0-1.752-1.08-2.64-2.928-2.64h-3.24v5.353H505.059z"/>
	<path class="st3" d="M522.146,302.146c5.28,0,8.929,3.408,8.929,8.4c0,4.969-3.696,8.4-9.097,8.4h-7.057v-16.801H522.146z
		 M519.194,315.538h3.048c2.616,0,4.488-2.016,4.488-4.969c0-2.976-1.968-5.016-4.681-5.016h-2.856V315.538z"/>
	<path class="st3" d="M533.33,318.946v-16.801h4.272v16.801H533.33z"/>
	<path class="st3" d="M552.699,318.946l-7.729-10.344v10.344h-4.008v-16.801h3.768l7.753,10.369v-10.369h3.984v16.801H552.699z"/>
	<path class="st3" d="M574.683,310.401v6.553c-1.8,1.272-4.632,2.185-6.985,2.185c-5.112,0-8.977-3.696-8.977-8.593
		c0-4.872,3.96-8.545,9.265-8.545c2.496,0,5.137,0.961,6.865,2.496l-2.4,2.904c-1.224-1.128-2.928-1.824-4.488-1.824
		c-2.76,0-4.873,2.16-4.873,4.969c0,2.856,2.136,5.017,4.92,5.017c0.864,0,1.968-0.312,2.977-0.815v-4.346H574.683z"/>
</g>
<g>
	<rect x="395.629" y="349.644" class="st1" width="145.213" height="22.5"/>
	<path class="st3" d="M410.39,352.331l-1.608,3.336c-1.776-1.031-4.008-1.752-5.376-1.752c-1.104,0-1.848,0.408-1.848,1.225
		c0,2.904,8.88,1.248,8.88,7.32c0,3.36-2.976,5.137-6.72,5.137c-2.809,0-5.688-1.057-7.681-2.688l1.656-3.288
		c1.729,1.512,4.321,2.52,6.073,2.52c1.344,0,2.184-0.504,2.184-1.464c0-2.976-8.881-1.2-8.881-7.152
		c0-3.097,2.665-5.064,6.697-5.064C406.189,350.459,408.662,351.203,410.39,352.331z"/>
	<path class="st3" d="M419.269,360.852l-2.232,2.473v4.128h-4.272v-16.801h4.272v7.272l6.433-7.272h4.944l-6.241,6.96l6.648,9.841
		h-5.112L419.269,360.852z"/>
	<path class="st3" d="M434.965,354.011v3.337h8.017v3.36h-8.017v3.384h9.145v3.36h-13.417v-16.801h13.153v3.359H434.965z"/>
	<path class="st3" d="M454.645,354.083v13.369h-4.272v-13.369h-5.017v-3.456h14.354v3.456H454.645z"/>
	<path class="st3" d="M475.31,353.339l-2.472,2.929c-1.104-1.345-2.736-2.185-4.224-2.185c-2.665,0-4.681,2.112-4.681,4.873
		c0,2.808,2.016,4.944,4.681,4.944c1.416,0,3.048-0.769,4.224-1.969l2.496,2.641c-1.8,1.848-4.464,3.072-6.937,3.072
		c-5.064,0-8.833-3.721-8.833-8.641c0-4.849,3.864-8.497,8.977-8.497C471.037,350.507,473.629,351.611,475.31,353.339z"/>
	<path class="st3" d="M488.509,367.452v-6.528h-6.96v6.528h-4.272v-16.801h4.272v6.912h6.96v-6.912h4.272v16.801H488.509z"/>
	<path class="st3" d="M496.14,367.452v-16.801h4.272v16.801H496.14z"/>
	<path class="st3" d="M515.508,367.452l-7.729-10.345v10.345h-4.008v-16.801h3.768l7.753,10.368v-10.368h3.984v16.801H515.508z"/>
	<path class="st3" d="M537.493,358.907v6.553c-1.8,1.272-4.633,2.185-6.985,2.185c-5.112,0-8.977-3.696-8.977-8.593
		c0-4.872,3.96-8.545,9.265-8.545c2.496,0,5.136,0.96,6.865,2.496l-2.4,2.904c-1.224-1.128-2.928-1.824-4.488-1.824
		c-2.76,0-4.873,2.16-4.873,4.969c0,2.856,2.136,5.017,4.92,5.017c0.864,0,1.968-0.312,2.977-0.816v-4.345H537.493z"/>
</g>
<g>
	<rect x="690.912" y="197.457" class="st1" width="217.368" height="24.129"/>
	<path class="st4" d="M726.277,211.689v3.576h-11.4v-16.801h4.271v13.225H726.277z"/>
	<path class="st4" d="M745.382,206.84c0,4.896-3.888,8.617-9.097,8.617c-5.185,0-9.072-3.696-9.072-8.617
		c0-4.896,3.888-8.521,9.072-8.521C741.494,198.319,745.382,201.968,745.382,206.84z M731.58,206.864
		c0,2.832,2.185,5.017,4.753,5.017c2.593,0,4.656-2.185,4.656-5.017s-2.063-4.969-4.656-4.969S731.58,204.032,731.58,206.864z"/>
	<path class="st4" d="M761.894,215.265l-3.12-11.617l-3.168,11.617h-4.416l-5.497-16.801h4.561l3.288,12.36l3.217-12.36h4.176
		l3.288,12.36l3.241-12.36h4.367l-5.544,16.801H761.894z"/>
	<path class="st4" d="M783.181,201.823v3.889h7.536v3.36h-7.536v6.192h-4.272v-16.801h12.457v3.359H783.181z"/>
	<path class="st4" d="M793.404,215.265v-16.801h4.271v16.801H793.404z"/>
	<path class="st4" d="M808.26,198.464c5.281,0,8.93,3.408,8.93,8.4c0,4.969-3.697,8.4-9.098,8.4h-7.057v-16.801H808.26z
		 M805.309,211.857h3.048c2.616,0,4.488-2.016,4.488-4.969c0-2.976-1.968-5.016-4.681-5.016h-2.855V211.857z"/>
	<path class="st4" d="M823.717,201.823v3.337h8.016v3.36h-8.016v3.384h9.145v3.36h-13.418v-16.801h13.154v3.359H823.717z"/>
	<path class="st4" d="M847.021,211.689v3.576h-11.401v-16.801h4.273v13.225H847.021z"/>
	<path class="st4" d="M849.06,215.265v-16.801h4.272v16.801H849.06z"/>
	<path class="st4" d="M864.469,201.896v13.369h-4.273v-13.369h-5.016v-3.456h14.354v3.456H864.469z"/>
	<path class="st4" d="M880.02,215.265h-4.248v-5.305l-6.217-11.496h4.272l4.056,7.32l3.961-7.32h4.272l-6.097,11.377V215.265z"/>
</g>
<g>
	<rect x="690.912" y="248.94" class="st1" width="217.368" height="24.032"/>
	<path class="st4" d="M723.746,266.748v-6.528h-6.961v6.528h-4.272v-16.802h4.272v6.913h6.961v-6.913h4.271v16.802H723.746z"/>
	<path class="st4" d="M731.377,266.748v-16.802h4.271v16.802H731.377z"/>
	<path class="st4" d="M753.865,258.203v6.553c-1.8,1.271-4.633,2.184-6.984,2.184c-5.112,0-8.977-3.696-8.977-8.593
		c0-4.872,3.961-8.544,9.265-8.544c2.496,0,5.136,0.96,6.864,2.496l-2.4,2.904c-1.224-1.128-2.928-1.824-4.488-1.824
		c-2.76,0-4.872,2.16-4.872,4.968c0,2.856,2.136,5.017,4.921,5.017c0.863,0,1.968-0.312,2.977-0.815v-4.345H753.865z"/>
	<path class="st4" d="M768.073,266.748v-6.528h-6.96v6.528h-4.273v-16.802h4.273v6.913h6.96v-6.913h4.272v16.802H768.073z"/>
	<path class="st4" d="M785.545,253.307v3.889h7.536v3.36h-7.536v6.192h-4.273v-16.802h12.457v3.36H785.545z"/>
	<path class="st4" d="M795.768,266.748v-16.802h4.272v16.802H795.768z"/>
	<path class="st4" d="M810.624,249.946c5.28,0,8.929,3.408,8.929,8.4c0,4.969-3.696,8.401-9.097,8.401h-7.057v-16.802H810.624z
		 M807.672,263.34h3.049c2.615,0,4.488-2.017,4.488-4.969c0-2.977-1.969-5.017-4.682-5.017h-2.855V263.34z"/>
	<path class="st4" d="M826.08,253.307v3.336h8.017v3.36h-8.017v3.385h9.145v3.36h-13.417v-16.802h13.153v3.36H826.08z"/>
	<path class="st4" d="M849.385,263.172v3.576h-11.401v-16.802h4.272v13.226H849.385z"/>
	<path class="st4" d="M851.424,266.748v-16.802h4.271v16.802H851.424z"/>
	<path class="st4" d="M866.832,253.379v13.369h-4.272v-13.369h-5.017v-3.457h14.354v3.457H866.832z"/>
	<path class="st4" d="M882.383,266.748h-4.248v-5.305l-6.217-11.497h4.273l4.056,7.32l3.96-7.32h4.273l-6.098,11.377V266.748z"/>
</g>
<g>
	<rect x="1037.669" y="197.457" class="st1" width="217.368" height="24.129"/>
	<path class="st5" d="M1065.439,208.208c0,4.44-2.952,7.249-7.656,7.249c-4.729,0-7.753-2.809-7.753-7.249v-9.744h4.272v9.744
		c0,2.28,1.464,3.673,3.504,3.673c2.017,0,3.385-1.393,3.385-3.673v-9.744h4.248V208.208z"/>
	<path class="st5" d="M1081.591,200.144l-1.607,3.336c-1.776-1.031-4.009-1.752-5.377-1.752c-1.104,0-1.848,0.408-1.848,1.225
		c0,2.904,8.88,1.248,8.88,7.32c0,3.36-2.976,5.137-6.72,5.137c-2.809,0-5.688-1.057-7.681-2.688l1.655-3.288
		c1.729,1.512,4.321,2.52,6.073,2.52c1.344,0,2.184-0.504,2.184-1.464c0-2.976-8.881-1.2-8.881-7.152
		c0-3.097,2.665-5.064,6.697-5.064C1077.391,198.272,1079.863,199.016,1081.591,200.144z"/>
	<path class="st5" d="M1087.711,212.169l-1.225,3.096h-4.393l7.249-16.801h4.393l7.08,16.801h-4.561l-1.199-3.096H1087.711z
		 M1091.407,202.712l-2.448,6.217h4.848L1091.407,202.712z"/>
	<path class="st5" d="M1110.319,198.464c3.768,0,6.168,1.632,6.168,4.2c0,1.776-1.104,3.192-2.88,3.696
		c2.112,0.408,3.456,2.063,3.456,4.248c0,2.856-2.496,4.656-6.456,4.656h-8.233v-16.801H1110.319z M1106.623,205.184h3.456
		c1.248,0,2.04-0.672,2.04-1.752s-0.792-1.704-2.04-1.704h-3.456V205.184z M1106.623,211.977h3.456c1.584,0,2.568-0.696,2.568-1.896
		c0-1.128-0.984-1.824-2.568-1.824h-3.456V211.977z"/>
	<path class="st5" d="M1119.534,215.265v-16.801h4.272v16.801H1119.534z"/>
	<path class="st5" d="M1138.567,211.689v3.576h-11.401v-16.801h4.272v13.225H1138.567z"/>
	<path class="st5" d="M1140.606,215.265v-16.801h4.272v16.801H1140.606z"/>
	<path class="st5" d="M1156.015,201.896v13.369h-4.272v-13.369h-5.017v-3.456h14.354v3.456H1156.015z"/>
	<path class="st5" d="M1171.566,215.265h-4.248v-5.305l-6.217-11.496h4.272l4.056,7.32l3.961-7.32h4.272l-6.097,11.377V215.265z"/>
	<path class="st5" d="M1192.566,201.896v13.369h-4.272v-13.369h-5.017v-3.456h14.354v3.456H1192.566z"/>
	<path class="st5" d="M1203.726,201.823v3.337h8.017v3.36h-8.017v3.384h9.145v3.36h-13.417v-16.801h13.153v3.359H1203.726z"/>
	<path class="st5" d="M1228.71,200.144l-1.607,3.336c-1.776-1.031-4.009-1.752-5.377-1.752c-1.104,0-1.848,0.408-1.848,1.225
		c0,2.904,8.88,1.248,8.88,7.32c0,3.36-2.976,5.137-6.72,5.137c-2.809,0-5.688-1.057-7.681-2.688l1.655-3.288
		c1.729,1.512,4.321,2.52,6.073,2.52c1.344,0,2.184-0.504,2.184-1.464c0-2.976-8.881-1.2-8.881-7.152
		c0-3.097,2.665-5.064,6.697-5.064C1224.51,198.272,1226.982,199.016,1228.71,200.144z"/>
	<path class="st5" d="M1238.862,201.896v13.369h-4.272v-13.369h-5.017v-3.456h14.354v3.456H1238.862z"/>
</g>
<g>
	<rect x="1032.198" y="244.804" class="st1" width="217.368" height="56.335"/>
	<path class="st5" d="M1089.393,248.499l-2.473,2.928c-1.104-1.344-2.736-2.184-4.224-2.184c-2.665,0-4.681,2.112-4.681,4.872
		c0,2.809,2.016,4.944,4.681,4.944c1.416,0,3.048-0.768,4.224-1.968l2.496,2.64c-1.8,1.849-4.464,3.072-6.937,3.072
		c-5.064,0-8.832-3.72-8.832-8.641c0-4.849,3.864-8.496,8.977-8.496C1085.12,245.667,1087.712,246.771,1089.393,248.499z"/>
	<path class="st5" d="M1108.137,254.188c0,4.896-3.889,8.616-9.097,8.616c-5.185,0-9.073-3.696-9.073-8.616
		c0-4.896,3.889-8.521,9.073-8.521C1104.248,245.667,1108.137,249.315,1108.137,254.188z M1094.335,254.211
		c0,2.833,2.185,5.017,4.753,5.017c2.592,0,4.656-2.184,4.656-5.017c0-2.832-2.064-4.968-4.656-4.968
		C1096.495,249.243,1094.335,251.379,1094.335,254.211z"/>
	<path class="st5" d="M1124.937,254.067v6.553c-1.8,1.271-4.633,2.184-6.984,2.184c-5.112,0-8.977-3.696-8.977-8.593
		c0-4.872,3.96-8.544,9.265-8.544c2.496,0,5.136,0.96,6.864,2.496l-2.4,2.904c-1.224-1.129-2.928-1.824-4.488-1.824
		c-2.76,0-4.872,2.16-4.872,4.968c0,2.856,2.136,5.017,4.92,5.017c0.864,0,1.969-0.312,2.977-0.815v-4.345H1124.937z"/>
	<path class="st5" d="M1139.648,262.612l-7.729-10.345v10.345h-4.009v-16.802h3.769l7.753,10.369v-10.369h3.984v16.802H1139.648z"/>
	<path class="st5" d="M1146.775,262.612v-16.802h4.272v16.802H1146.775z"/>
	<path class="st5" d="M1162.184,249.243v13.369h-4.272v-13.369h-5.017v-3.457h14.354v3.457H1162.184z"/>
	<path class="st5" d="M1169.071,262.612v-16.802h4.272v16.802H1169.071z"/>
	<path class="st5" d="M1181.527,262.612l-6.528-16.802h4.561l4.296,12.361l4.296-12.361h4.393l-6.601,16.802H1181.527z"/>
	<path class="st5" d="M1198.471,249.171v3.336h8.017v3.36h-8.017v3.385h9.145v3.36h-13.417v-16.802h13.153v3.36H1198.471z"/>
	<path class="st5" d="M1057.257,291.412l-3.12-11.617l-3.169,11.617h-4.416l-5.496-16.801h4.561l3.288,12.36l3.216-12.36h4.177
		l3.288,12.36l3.24-12.36h4.368l-5.544,16.801H1057.257z"/>
	<path class="st5" d="M1071.225,288.316l-1.225,3.096h-4.393l7.249-16.801h4.393l7.08,16.801h-4.561l-1.199-3.096H1071.225z
		 M1074.921,278.859l-2.448,6.217h4.848L1074.921,278.859z"/>
	<path class="st5" d="M1097.288,287.836v3.576h-11.4v-16.801h4.272v13.225H1097.288z"/>
	<path class="st5" d="M1105.832,284.812l-2.231,2.473v4.128h-4.272v-16.801h4.272v7.272l6.433-7.272h4.944l-6.241,6.96l6.648,9.841
		h-5.112L1105.832,284.812z"/>
	<path class="st5" d="M1125.032,278.043v13.369h-4.272v-13.369h-5.017v-3.456h14.354v3.456H1125.032z"/>
	<path class="st5" d="M1143.151,291.412v-6.528h-6.96v6.528h-4.272v-16.801h4.272v6.912h6.96v-6.912h4.272v16.801H1143.151z"/>
	<path class="st5" d="M1158.416,286.684h-0.12h-3.24v4.729h-4.272v-16.801h7.513c4.44,0,6.984,2.111,6.984,5.856
		c0,2.567-1.08,4.416-3.049,5.4l3.528,5.544h-4.848L1158.416,286.684z M1158.296,283.323c1.848,0,2.928-0.936,2.928-2.712
		c0-1.752-1.08-2.641-2.928-2.641h-3.24v5.353H1158.296z"/>
	<path class="st5" d="M1185.225,282.987c0,4.896-3.889,8.617-9.097,8.617c-5.185,0-9.073-3.696-9.073-8.617
		c0-4.896,3.889-8.521,9.073-8.521C1181.336,274.467,1185.225,278.115,1185.225,282.987z M1171.423,283.012
		c0,2.832,2.185,5.017,4.753,5.017c2.592,0,4.656-2.185,4.656-5.017s-2.064-4.969-4.656-4.969
		C1173.583,278.043,1171.423,280.18,1171.423,283.012z"/>
	<path class="st5" d="M1202.6,284.356c0,4.44-2.952,7.249-7.656,7.249c-4.729,0-7.753-2.809-7.753-7.249v-9.744h4.272v9.744
		c0,2.28,1.464,3.673,3.504,3.673c2.017,0,3.385-1.393,3.385-3.673v-9.744h4.248V284.356z"/>
	<path class="st5" d="M1220.528,282.867v6.553c-1.801,1.272-4.633,2.185-6.985,2.185c-5.112,0-8.977-3.696-8.977-8.593
		c0-4.872,3.961-8.545,9.265-8.545c2.496,0,5.137,0.96,6.865,2.496l-2.4,2.904c-1.225-1.128-2.929-1.824-4.488-1.824
		c-2.761,0-4.873,2.16-4.873,4.969c0,2.856,2.137,5.017,4.921,5.017c0.864,0,1.968-0.312,2.977-0.816v-4.345H1220.528z"/>
	<path class="st5" d="M1234.735,291.412v-6.528h-6.96v6.528h-4.272v-16.801h4.272v6.912h6.96v-6.912h4.272v16.801H1234.735z"/>
</g>
<g>
	<rect x="1032.198" y="315.809" class="st1" width="217.368" height="56.335"/>
	<path class="st5" d="M1087.496,333.617v-6.528h-6.96v6.528h-4.272v-16.801h4.272v6.912h6.96v-6.912h4.272v16.801H1087.496z"/>
	<path class="st5" d="M1099.399,320.177v3.336h8.017v3.36h-8.017v3.384h9.145v3.36h-13.417v-16.801h13.153v3.36H1099.399z"/>
	<path class="st5" d="M1126.424,326.561c0,4.44-2.952,7.249-7.656,7.249c-4.729,0-7.753-2.809-7.753-7.249v-9.744h4.272v9.744
		c0,2.28,1.464,3.673,3.505,3.673c2.016,0,3.384-1.393,3.384-3.673v-9.744h4.248V326.561z"/>
	<path class="st5" d="M1137.128,328.889h-0.12h-3.24v4.729h-4.272v-16.801h7.513c4.44,0,6.984,2.111,6.984,5.856
		c0,2.567-1.08,4.416-3.049,5.4l3.528,5.544h-4.848L1137.128,328.889z M1137.008,325.528c1.848,0,2.928-0.936,2.928-2.712
		c0-1.752-1.08-2.64-2.928-2.64h-3.24v5.352H1137.008z"/>
	<path class="st5" d="M1146.871,333.617v-16.801h4.272v16.801H1146.871z"/>
	<path class="st5" d="M1167.584,318.496l-1.608,3.336c-1.776-1.031-4.008-1.752-5.376-1.752c-1.104,0-1.849,0.408-1.849,1.225
		c0,2.904,8.881,1.248,8.881,7.32c0,3.36-2.977,5.137-6.721,5.137c-2.809,0-5.688-1.057-7.681-2.688l1.656-3.288
		c1.729,1.512,4.32,2.52,6.072,2.52c1.345,0,2.185-0.504,2.185-1.464c0-2.976-8.881-1.2-8.881-7.152
		c0-3.097,2.664-5.064,6.696-5.064C1163.384,316.624,1165.855,317.368,1167.584,318.496z"/>
	<path class="st5" d="M1177.735,320.248v13.369h-4.272v-13.369h-5.017v-3.456h14.354v3.456H1177.735z"/>
	<path class="st5" d="M1184.623,333.617v-16.801h4.272v16.801H1184.623z"/>
	<path class="st5" d="M1206.896,319.504l-2.472,2.929c-1.104-1.345-2.736-2.185-4.225-2.185c-2.664,0-4.681,2.112-4.681,4.873
		c0,2.808,2.017,4.944,4.681,4.944c1.416,0,3.048-0.769,4.225-1.969l2.496,2.641c-1.8,1.848-4.465,3.072-6.937,3.072
		c-5.064,0-8.833-3.721-8.833-8.641c0-4.849,3.864-8.497,8.977-8.497C1202.623,316.672,1205.216,317.776,1206.896,319.504z"/>
	<path class="st5" d="M1084.315,359.321l-1.224,3.097h-4.393l7.248-16.802h4.393l7.081,16.802h-4.561l-1.2-3.097H1084.315z
		 M1088.012,349.864l-2.448,6.217h4.849L1088.012,349.864z"/>
	<path class="st5" d="M1110.716,362.418l-7.729-10.345v10.345h-4.008v-16.802h3.768l7.753,10.369v-10.369h3.984v16.802H1110.716z"/>
	<path class="st5" d="M1121.659,359.321l-1.224,3.097h-4.393l7.248-16.802h4.393l7.081,16.802h-4.561l-1.2-3.097H1121.659z
		 M1125.355,349.864l-2.448,6.217h4.849L1125.355,349.864z"/>
	<path class="st5" d="M1147.724,358.842v3.576h-11.4v-16.802h4.272v13.226H1147.724z"/>
	<path class="st5" d="M1158.428,362.418h-4.248v-5.305l-6.217-11.497h4.272l4.056,7.32l3.961-7.32h4.272l-6.097,11.377V362.418z"/>
	<path class="st5" d="M1179.164,347.297l-1.608,3.336c-1.776-1.032-4.008-1.752-5.376-1.752c-1.104,0-1.849,0.408-1.849,1.224
		c0,2.904,8.881,1.248,8.881,7.321c0,3.359-2.977,5.136-6.721,5.136c-2.809,0-5.688-1.056-7.681-2.688l1.656-3.288
		c1.729,1.513,4.32,2.521,6.072,2.521c1.345,0,2.185-0.504,2.185-1.464c0-2.977-8.881-1.2-8.881-7.153
		c0-3.096,2.664-5.064,6.696-5.064C1174.964,345.424,1177.436,346.168,1179.164,347.297z"/>
	<path class="st5" d="M1181.539,362.418v-16.802h4.272v16.802H1181.539z"/>
	<path class="st5" d="M1202.252,347.297l-1.608,3.336c-1.776-1.032-4.008-1.752-5.376-1.752c-1.104,0-1.849,0.408-1.849,1.224
		c0,2.904,8.881,1.248,8.881,7.321c0,3.359-2.977,5.136-6.721,5.136c-2.809,0-5.688-1.056-7.681-2.688l1.656-3.288
		c1.729,1.513,4.32,2.521,6.072,2.521c1.345,0,2.185-0.504,2.185-1.464c0-2.977-8.881-1.2-8.881-7.153
		c0-3.096,2.664-5.064,6.696-5.064C1198.052,345.424,1200.523,346.168,1202.252,347.297z"/>
</g>
<g>
	<g>
		<line class="st6" x1="262" y1="121.765" x2="335" y2="121.765"/>
		<g>
			<polygon class="st7" points="333,129.344 346.126,121.765 333,114.185 			"/>
		</g>
	</g>
</g>
<g>
	<g>
		<line class="st6" x1="590" y1="121.765" x2="670" y2="121.765"/>
		<g>
			<polygon class="st7" points="668,129.681 681.71,121.765 668,113.848 			"/>
		</g>
	</g>
</g>
<g>
	<g>
		<line class="st6" x1="925" y1="121.765" x2="1008" y2="121.765"/>
		<g>
			<polygon class="st7" points="1005,129.797 1018.911,121.765 1005,113.732 			"/>
		</g>
	</g>
</g>
<line class="st6" x1="1099.652" y1="29.228" x2="1099.652" y2="67.228"/>
<g>
	<line class="st6" x1="1101.652" y1="29.228" x2="534.652" y2="29.228"/>
	<g>
		<g>
			<line class="st6" x1="536.652" y1="29.228" x2="536.652" y2="56.228"/>
			<g>
				<polygon class="st7" points="529.073,54.228 536.652,67.353 544.232,54.228 				"/>
			</g>
		</g>
	</g>
</g>
<g>
	<rect x="382.568" y="397.647" class="st1" width="171.334" height="50.588"/>
	<path class="st3" d="M400.605,401.341l-2.472,2.929c-1.104-1.345-2.736-2.185-4.224-2.185c-2.665,0-4.681,2.113-4.681,4.873
		c0,2.809,2.016,4.944,4.681,4.944c1.416,0,3.048-0.769,4.224-1.968l2.496,2.64c-1.8,1.849-4.464,3.072-6.937,3.072
		c-5.064,0-8.833-3.72-8.833-8.641c0-4.849,3.864-8.497,8.977-8.497C396.333,398.509,398.925,399.613,400.605,401.341z"/>
	<path class="st3" d="M419.349,407.03c0,4.896-3.888,8.616-9.097,8.616c-5.185,0-9.073-3.696-9.073-8.616
		c0-4.896,3.888-8.521,9.073-8.521C415.461,398.509,419.349,402.157,419.349,407.03z M405.548,407.054
		c0,2.832,2.184,5.017,4.752,5.017c2.592,0,4.656-2.185,4.656-5.017s-2.064-4.969-4.656-4.969S405.548,404.222,405.548,407.054z"/>
	<path class="st3" d="M433.341,415.454l-7.729-10.344v10.344h-4.008v-16.801h3.768l7.753,10.369v-10.369h3.984v16.801H433.341z"/>
	<path class="st3" d="M455.108,401.341l-2.472,2.929c-1.104-1.345-2.736-2.185-4.224-2.185c-2.665,0-4.681,2.113-4.681,4.873
		c0,2.809,2.016,4.944,4.681,4.944c1.416,0,3.048-0.769,4.224-1.968l2.496,2.64c-1.8,1.849-4.464,3.072-6.937,3.072
		c-5.064,0-8.833-3.72-8.833-8.641c0-4.849,3.864-8.497,8.977-8.497C450.836,398.509,453.428,399.613,455.108,401.341z"/>
	<path class="st3" d="M461.347,402.014v3.336h8.017v3.36h-8.017v3.385h9.145v3.359h-13.417v-16.801h13.153v3.36H461.347z"/>
	<path class="st3" d="M480.571,398.653c4.296,0,6.769,2.111,6.769,5.856c0,3.937-2.472,6.216-6.769,6.216h-3.048v4.729h-4.272
		v-16.801H480.571z M477.523,407.366h2.832c1.872,0,2.952-0.937,2.952-2.713c0-1.752-1.08-2.64-2.952-2.64h-2.832V407.366z"/>
	<path class="st3" d="M497.348,402.085v13.369h-4.272v-13.369h-5.017v-3.456h14.354v3.456H497.348z"/>
	<path class="st3" d="M519.355,408.398c0,4.441-2.952,7.249-7.656,7.249c-4.729,0-7.753-2.808-7.753-7.249v-9.744h4.272v9.744
		c0,2.281,1.464,3.673,3.504,3.673c2.016,0,3.384-1.392,3.384-3.673v-9.744h4.248V408.398z"/>
	<path class="st3" d="M525.763,412.358l-1.224,3.096h-4.393l7.249-16.801h4.393l7.081,16.801h-4.561l-1.2-3.096H525.763z
		 M529.459,402.901l-2.448,6.217h4.848L529.459,402.901z"/>
	<path class="st3" d="M551.827,411.878v3.576h-11.401v-16.801h4.272v13.225H551.827z"/>
	<path class="st3" d="M417.85,444.255l-0.024-10.921l-4.032,9.241h-2.784l-4.032-9.241v10.921h-3.816v-16.826h4.68l4.561,10.01
		l4.561-10.01h4.656v16.826H417.85z"/>
	<path class="st3" d="M442.065,435.83c0,4.896-3.888,8.616-9.097,8.616c-5.185,0-9.073-3.695-9.073-8.616
		c0-4.896,3.888-8.521,9.073-8.521C438.177,427.31,442.065,430.958,442.065,435.83z M428.264,435.855
		c0,2.832,2.184,5.016,4.752,5.016c2.592,0,4.656-2.184,4.656-5.016s-2.064-4.969-4.656-4.969S428.264,433.023,428.264,435.855z"/>
	<path class="st3" d="M451.544,427.454c5.28,0,8.929,3.408,8.929,8.4c0,4.969-3.696,8.4-9.097,8.4h-7.057v-16.801H451.544z
		 M448.592,440.847h3.048c2.616,0,4.488-2.016,4.488-4.969c0-2.977-1.968-5.016-4.681-5.016h-2.856V440.847z"/>
	<path class="st3" d="M467,430.814v3.336h8.017v3.361H467v3.384h9.145v3.36h-13.417v-16.801h13.153v3.359H467z"/>
	<path class="st3" d="M490.305,440.679v3.576h-11.401v-16.801h4.272v13.225H490.305z"/>
	<path class="st3" d="M492.344,444.255v-16.801h4.272v16.801H492.344z"/>
	<path class="st3" d="M511.712,444.255l-7.729-10.345v10.345h-4.008v-16.801h3.768l7.753,10.368v-10.368h3.984v16.801H511.712z"/>
	<path class="st3" d="M533.697,435.71v6.553c-1.8,1.271-4.632,2.184-6.985,2.184c-5.112,0-8.977-3.695-8.977-8.592
		c0-4.873,3.96-8.545,9.265-8.545c2.496,0,5.137,0.96,6.865,2.496l-2.4,2.904c-1.224-1.128-2.928-1.824-4.488-1.824
		c-2.76,0-4.873,2.16-4.873,4.969c0,2.855,2.136,5.016,4.92,5.016c0.864,0,1.968-0.312,2.977-0.815v-4.345H533.697z"/>
</g>
<g>
</g>
<g>
</g>
<g>
</g>
<g>
</g>
<g>
</g>
<g>
</g>
<g>
</g>
<g>
</g>
<g>
</g>
<g>
</g>
<g>
</g>
<g>
</g>
<g>
</g>
<g>
</g>
<g>
</g>
<g>
</g>
</svg>
