<?xml version="1.0" encoding="utf-8"?>
<!-- Generator: Adobe Illustrator 19.1.0, SVG Export Plug-In . SVG Version: 6.00 Build 0)  -->
<svg version="1.0" id="Layer_1" xmlns="http://www.w3.org/2000/svg" xmlns:xlink="http://www.w3.org/1999/xlink" x="0px" y="0px"
	 width="1276.358px" height="426.753px" viewBox="0 0 1276.358 426.753" style="enable-background:new 0 0 1276.358 426.753;"
	 xml:space="preserve">
<style type="text/css">
	.st0{fill:#27AE60;}
	.st1{fill:none;}
	.st2{fill:#FFFFFF;}
	.st3{fill:#2980B9;}
	.st4{fill:#F1C40F;}
	.st5{fill:#C0392B;}
	.st6{fill:none;stroke:#754C24;stroke-width:4;stroke-miterlimit:10;}
	.st7{fill:#754C24;}
</style>
<g>
	<path class="st0" d="M253.888,169.4H18.359c-2.209,0-4-1.791-4-4V65.165c0-2.209,1.791-4,4-4h235.529c2.209,0,4,1.791,4,4V165.4
		C257.888,167.609,256.097,169.4,253.888,169.4z"/>
	<g>
		<rect x="32.888" y="100.283" class="st1" width="206.471" height="30"/>
		<path class="st2" d="M46.854,119.902h-0.18h-4.859v7.091h-6.407v-25.197h11.267c6.659,0,10.475,3.167,10.475,8.783
			c0,3.852-1.62,6.623-4.571,8.099l5.292,8.315h-7.271L46.854,119.902z M46.674,114.863c2.772,0,4.392-1.404,4.392-4.067
			c0-2.628-1.62-3.959-4.392-3.959h-4.859v8.027H46.674z"/>
		<path class="st2" d="M67.878,106.836v5.003h12.022v5.04H67.878v5.075h13.714v5.04H61.471v-25.197h19.726v5.04H67.878z"/>
		<path class="st2" d="M105.353,104.316l-2.412,5.003c-2.664-1.548-6.011-2.627-8.063-2.627c-1.656,0-2.771,0.612-2.771,1.835
			c0,4.355,13.318,1.872,13.318,10.979c0,5.04-4.463,7.703-10.079,7.703c-4.211,0-8.531-1.583-11.519-4.031l2.484-4.932
			c2.592,2.268,6.479,3.78,9.107,3.78c2.016,0,3.275-0.756,3.275-2.196c0-4.463-13.318-1.8-13.318-10.727
			c0-4.644,3.996-7.595,10.043-7.595C99.053,101.509,102.761,102.625,105.353,104.316z"/>
		<path class="st2" d="M115.326,106.836v5.003h12.022v5.04h-12.022v5.075h13.714v5.04h-20.122v-25.197h19.726v5.04H115.326z"/>
		<path class="st2" d="M138.906,122.35l-1.836,4.644h-6.587l10.871-25.197h6.587l10.619,25.197h-6.839l-1.799-4.644H138.906z
			 M144.449,108.168l-3.671,9.323h7.271L144.449,108.168z"/>
		<path class="st2" d="M172.349,119.902h-0.18h-4.859v7.091h-6.407v-25.197h11.267c6.659,0,10.475,3.167,10.475,8.783
			c0,3.852-1.62,6.623-4.571,8.099l5.292,8.315h-7.271L172.349,119.902z M172.169,114.863c2.772,0,4.392-1.404,4.392-4.067
			c0-2.628-1.62-3.959-4.392-3.959h-4.859v8.027H172.169z"/>
		<path class="st2" d="M208.924,105.828l-3.708,4.392c-1.655-2.016-4.103-3.275-6.335-3.275c-3.996,0-7.019,3.167-7.019,7.307
			c0,4.211,3.023,7.415,7.019,7.415c2.124,0,4.571-1.152,6.335-2.952l3.744,3.959c-2.7,2.771-6.695,4.607-10.403,4.607
			c-7.595,0-13.247-5.58-13.247-12.958c0-7.271,5.795-12.742,13.462-12.742C202.517,101.581,206.404,103.237,208.924,105.828z"/>
		<path class="st2" d="M228.724,126.994v-9.791h-10.438v9.791h-6.407v-25.197h6.407v10.367h10.438v-10.367h6.407v25.197H228.724z"/>
	</g>
</g>
<path class="st3" d="M582.358,169.4H346.829c-2.209,0-4-1.791-4-4V65.165c0-2.209,1.791-4,4-4h235.529c2.209,0,4,1.791,4,4V165.4
	C586.358,167.609,584.567,169.4,582.358,169.4z"/>
<g>
	<rect x="397.064" y="100.283" class="st1" width="135.059" height="30"/>
	<path class="st2" d="M399.584,126.994v-25.196h6.407v25.196H399.584z"/>
	<path class="st2" d="M421.867,101.797c7.919,0,13.39,5.111,13.39,12.598c0,7.451-5.543,12.599-13.642,12.599h-10.583v-25.196
		H421.867z M417.439,121.882h4.572c3.923,0,6.731-3.023,6.731-7.451c0-4.463-2.952-7.522-7.019-7.522h-4.284V121.882z"/>
	<path class="st2" d="M445.051,106.836v5.003h12.022v5.04h-12.022v5.075h13.714v5.039h-20.122v-25.196h19.726v5.039H445.051z"/>
	<path class="st2" d="M468.631,122.35l-1.836,4.644h-6.587l10.871-25.196h6.587l10.619,25.196h-6.839l-1.799-4.644H468.631z
		 M474.174,108.169l-3.671,9.322h7.271L474.174,108.169z"/>
	<path class="st2" d="M499.59,106.945v20.049h-6.407v-20.049h-7.523v-5.184h21.525v5.184H499.59z"/>
	<path class="st2" d="M516.33,106.836v5.003h12.022v5.04H516.33v5.075h13.714v5.039h-20.122v-25.196h19.726v5.039H516.33z"/>
</g>
<path class="st4" d="M917.534,169.4H682.005c-2.209,0-4-1.791-4-4V65.165c0-2.209,1.791-4,4-4h235.529c2.209,0,4,1.791,4,4V165.4
	C921.534,167.609,919.744,169.4,917.534,169.4z"/>
<g>
	<rect x="687.27" y="100.283" class="st1" width="225" height="30"/>
	<path class="st2" d="M700.768,101.797c6.443,0,10.15,3.167,10.15,8.783c0,5.903-3.707,9.323-10.15,9.323h-4.571v7.091h-6.407
		v-25.197H700.768z M696.196,114.864h4.247c2.808,0,4.428-1.404,4.428-4.067c0-2.628-1.62-3.96-4.428-3.96h-4.247V114.864z"/>
	<path class="st2" d="M725.716,119.903h-0.181h-4.859v7.091h-6.407v-25.197h11.267c6.659,0,10.475,3.167,10.475,8.783
		c0,3.852-1.619,6.624-4.571,8.099l5.292,8.315h-7.271L725.716,119.903z M725.535,114.864c2.772,0,4.392-1.404,4.392-4.067
		c0-2.628-1.619-3.96-4.392-3.96h-4.859v8.027H725.535z"/>
	<path class="st2" d="M765.926,114.36c0,7.343-5.831,12.922-13.643,12.922c-7.774,0-13.606-5.543-13.606-12.922
		c0-7.343,5.832-12.778,13.606-12.778C760.095,101.582,765.926,107.053,765.926,114.36z M745.229,114.396
		c0,4.248,3.275,7.523,7.127,7.523c3.888,0,6.983-3.276,6.983-7.523c0-4.247-3.096-7.451-6.983-7.451
		S745.229,110.149,745.229,114.396z"/>
	<path class="st2" d="M780.147,106.945v20.049h-6.407v-20.049h-7.522v-5.184h21.525v5.184H780.147z"/>
	<path class="st2" d="M814.777,114.36c0,7.343-5.831,12.922-13.642,12.922c-7.775,0-13.606-5.543-13.606-12.922
		c0-7.343,5.831-12.778,13.606-12.778C808.946,101.582,814.777,107.053,814.777,114.36z M794.08,114.396
		c0,4.248,3.275,7.523,7.127,7.523c3.888,0,6.983-3.276,6.983-7.523c0-4.247-3.096-7.451-6.983-7.451
		C797.32,106.945,794.08,110.149,794.08,114.396z"/>
	<path class="st2" d="M828.999,106.945v20.049h-6.407v-20.049h-7.522v-5.184h21.525v5.184H828.999z"/>
	<path class="st2" d="M852.327,126.994h-6.371v-7.955l-9.323-17.242h6.407l6.083,10.979l5.939-10.979h6.407l-9.143,17.062V126.994z"
		/>
	<path class="st2" d="M874.791,101.797c6.443,0,10.151,3.167,10.151,8.783c0,5.903-3.708,9.323-10.151,9.323h-4.571v7.091h-6.407
		v-25.197H874.791z M870.22,114.864h4.248c2.808,0,4.427-1.404,4.427-4.067c0-2.628-1.619-3.96-4.427-3.96h-4.248V114.864z"/>
	<path class="st2" d="M894.699,106.836v5.003h12.022v5.04h-12.022v5.075h13.715v5.04h-20.122v-25.197h19.726v5.039H894.699z"/>
</g>
<path class="st5" d="M1255.005,169.4h-235.529c-2.209,0-4-1.791-4-4V65.165c0-2.209,1.791-4,4-4h235.529c2.209,0,4,1.791,4,4V165.4
	C1259.005,167.609,1257.214,169.4,1255.005,169.4z"/>
<g>
	<rect x="1044.594" y="100.283" class="st1" width="196.235" height="30"/>
	<path class="st2" d="M1053.521,106.836v5.003h12.022v5.04h-12.022v5.075h13.715v5.04h-20.122v-25.197h19.726v5.039H1053.521z"/>
	<path class="st2" d="M1078.612,126.994l-9.791-25.197h6.84l6.443,18.538l6.442-18.538h6.588l-9.899,25.197H1078.612z"/>
	<path class="st2" d="M1101.401,122.351l-1.836,4.644h-6.588l10.871-25.197h6.587l10.619,25.197h-6.84l-1.799-4.644H1101.401z
		 M1106.944,108.169l-3.672,9.323h7.271L1106.944,108.169z"/>
	<path class="st2" d="M1140.495,121.631v5.363h-17.098v-25.197h6.407v19.833H1140.495z"/>
	<path class="st2" d="M1166.234,116.412c0,6.659-4.427,10.871-11.482,10.871c-7.091,0-11.626-4.211-11.626-10.871v-14.614h6.407
		v14.614c0,3.419,2.195,5.507,5.255,5.507c3.023,0,5.075-2.088,5.075-5.507v-14.614h6.371V116.412z"/>
	<path class="st2" d="M1175.85,122.351l-1.836,4.644h-6.588l10.871-25.197h6.587l10.619,25.197h-6.84l-1.799-4.644H1175.85z
		 M1181.393,108.169l-3.672,9.323h7.271L1181.393,108.169z"/>
	<path class="st2" d="M1206.809,106.945v20.049h-6.407v-20.049h-7.523v-5.184h21.525v5.184H1206.809z"/>
	<path class="st2" d="M1223.549,106.836v5.003h12.022v5.04h-12.022v5.075h13.715v5.04h-20.122v-25.197h19.726v5.039H1223.549z"/>
</g>
<g>
	<rect x="57.153" y="192.084" class="st1" width="157.941" height="22.5"/>
	<path class="st0" d="M58.833,209.891V193.09h4.272v16.801H58.833z"/>
	<path class="st0" d="M78.202,209.891l-7.729-10.344v10.344h-4.008V193.09h3.768l7.753,10.369V193.09h3.984v16.801H78.202z"/>
	<path class="st0" d="M93.105,196.522v13.369h-4.272v-13.369h-5.017v-3.456H98.17v3.456H93.105z"/>
	<path class="st0" d="M104.265,196.451v3.336h8.017v3.36h-8.017v3.385h9.145v3.359H99.993V193.09h13.153v3.36H104.265z"/>
	<path class="st0" d="M123.801,205.163h-0.12h-3.24v4.729h-4.272V193.09h7.513c4.44,0,6.984,2.111,6.984,5.856
		c0,2.567-1.08,4.416-3.048,5.4l3.528,5.544h-4.848L123.801,205.163z M123.681,201.803c1.848,0,2.928-0.937,2.928-2.713
		c0-1.752-1.08-2.64-2.928-2.64h-3.24v5.353H123.681z"/>
	<path class="st0" d="M138.201,209.891l-6.528-16.801h4.561l4.296,12.361l4.296-12.361h4.393l-6.601,16.801H138.201z"/>
	<path class="st0" d="M150.873,209.891V193.09h4.272v16.801H150.873z"/>
	<path class="st0" d="M162.777,196.451v3.336h8.017v3.36h-8.017v3.385h9.145v3.359h-13.417V193.09h13.153v3.36H162.777z"/>
	<path class="st0" d="M189.177,209.891l-3.12-11.617l-3.168,11.617h-4.416l-5.497-16.801h4.561l3.288,12.361l3.216-12.361h4.176
		l3.288,12.361l3.241-12.361h4.368l-5.544,16.801H189.177z"/>
	<path class="st0" d="M213.705,194.77l-1.608,3.336c-1.776-1.031-4.008-1.752-5.376-1.752c-1.104,0-1.848,0.408-1.848,1.225
		c0,2.904,8.88,1.248,8.88,7.32c0,3.36-2.976,5.137-6.72,5.137c-2.809,0-5.688-1.057-7.681-2.688l1.656-3.288
		c1.729,1.512,4.321,2.52,6.073,2.52c1.344,0,2.184-0.504,2.184-1.463c0-2.977-8.881-1.201-8.881-7.153
		c0-3.097,2.665-5.064,6.697-5.064C209.504,192.898,211.977,193.642,213.705,194.77z"/>
</g>
<g>
	<rect x="45.314" y="243.224" class="st1" width="181.618" height="23.088"/>
	<path class="st0" d="M64.06,252.607c0,4.896-3.888,8.616-9.097,8.616c-5.185,0-9.073-3.696-9.073-8.616
		c0-4.896,3.888-8.521,9.073-8.521C60.172,244.087,64.06,247.734,64.06,252.607z M50.259,252.63c0,2.833,2.184,5.017,4.752,5.017
		c2.592,0,4.656-2.184,4.656-5.017c0-2.832-2.064-4.968-4.656-4.968S50.259,249.798,50.259,252.63z"/>
	<path class="st0" d="M74.259,244.23c3.768,0,6.168,1.632,6.168,4.2c0,1.776-1.104,3.192-2.88,3.696
		c2.112,0.408,3.457,2.064,3.457,4.249c0,2.855-2.497,4.656-6.457,4.656h-8.233V244.23H74.259z M70.563,250.951h3.456
		c1.248,0,2.04-0.672,2.04-1.752s-0.792-1.704-2.04-1.704h-3.456V250.951z M70.563,257.744h3.456c1.584,0,2.568-0.696,2.568-1.896
		c0-1.128-0.984-1.824-2.568-1.824h-3.456V257.744z"/>
	<path class="st0" d="M96.555,245.911l-1.608,3.336c-1.776-1.032-4.008-1.752-5.376-1.752c-1.104,0-1.848,0.408-1.848,1.224
		c0,2.904,8.88,1.248,8.88,7.32c0,3.36-2.976,5.137-6.72,5.137c-2.809,0-5.688-1.056-7.681-2.688l1.656-3.288
		c1.729,1.513,4.321,2.52,6.073,2.52c1.344,0,2.184-0.504,2.184-1.464c0-2.977-8.881-1.2-8.881-7.153
		c0-3.096,2.665-5.064,6.697-5.064C92.355,244.038,94.827,244.782,96.555,245.911z"/>
	<path class="st0" d="M103.203,247.59v3.336h8.017v3.36h-8.017v3.385h9.145v3.36H98.93V244.23h13.153v3.36H103.203z"/>
	<path class="st0" d="M122.739,256.303h-0.12h-3.24v4.729h-4.272V244.23h7.513c4.44,0,6.984,2.112,6.984,5.856
		c0,2.568-1.08,4.416-3.048,5.4l3.528,5.545h-4.848L122.739,256.303z M122.619,252.943c1.848,0,2.928-0.937,2.928-2.712
		c0-1.753-1.08-2.641-2.928-2.641h-3.24v5.353H122.619z"/>
	<path class="st0" d="M137.138,261.032l-6.528-16.802h4.561l4.296,12.361l4.296-12.361h4.393l-6.601,16.802H137.138z"/>
	<path class="st0" d="M152.331,257.935l-1.224,3.097h-4.393l7.249-16.802h4.393l7.081,16.802h-4.561l-1.2-3.097H152.331z
		 M156.027,248.478l-2.448,6.217h4.848L156.027,248.478z"/>
	<path class="st0" d="M172.971,247.663v13.369h-4.272v-13.369h-5.017v-3.457h14.354v3.457H172.971z"/>
	<path class="st0" d="M179.858,261.032V244.23h4.272v16.802H179.858z"/>
	<path class="st0" d="M204.556,252.607c0,4.896-3.888,8.616-9.097,8.616c-5.185,0-9.073-3.696-9.073-8.616
		c0-4.896,3.888-8.521,9.073-8.521C200.667,244.087,204.556,247.734,204.556,252.607z M190.754,252.63
		c0,2.833,2.184,5.017,4.752,5.017c2.592,0,4.656-2.184,4.656-5.017c0-2.832-2.064-4.968-4.656-4.968
		S190.754,249.798,190.754,252.63z"/>
	<path class="st0" d="M218.547,261.032l-7.729-10.345v10.345h-4.008V244.23h3.768l7.753,10.369V244.23h3.984v16.802H218.547z"/>
</g>
<g>
</g>
<g>
	<rect x="308.755" y="190.65" class="st1" width="311.676" height="47.868"/>
	<path class="st3" d="M413.799,205.362l-1.224,3.097h-4.393l7.249-16.802h4.393l7.081,16.802h-4.561l-1.2-3.097H413.799z
		 M417.496,195.905l-2.448,6.217h4.848L417.496,195.905z"/>
	<path class="st3" d="M432.735,195.017v3.889h7.537v3.36h-7.537v6.192h-4.272v-16.802h12.457v3.36H432.735z"/>
	<path class="st3" d="M447.231,195.017v3.889h7.537v3.36h-7.537v6.192h-4.272v-16.802h12.457v3.36H447.231z"/>
	<path class="st3" d="M457.454,208.459v-16.802h4.272v16.802H457.454z"/>
	<path class="st3" d="M476.823,208.459l-7.729-10.345v10.345h-4.008v-16.802h3.768l7.753,10.369v-10.369h3.984v16.802H476.823z"/>
	<path class="st3" d="M483.95,208.459v-16.802h4.272v16.802H483.95z"/>
	<path class="st3" d="M499.358,195.089v13.369h-4.272v-13.369h-5.017v-3.457h14.354v3.457H499.358z"/>
	<path class="st3" d="M514.91,208.459h-4.248v-5.305l-6.217-11.497h4.272l4.056,7.32l3.96-7.32h4.272l-6.097,11.377V208.459z"/>
	<path class="st3" d="M380.619,220.458c5.28,0,8.929,3.408,8.929,8.4c0,4.969-3.696,8.4-9.097,8.4h-7.057v-16.801H380.619z
		 M377.667,233.85h3.048c2.616,0,4.488-2.016,4.488-4.969c0-2.976-1.968-5.016-4.681-5.016h-2.856V233.85z"/>
	<path class="st3" d="M391.803,237.258v-16.801h4.272v16.801H391.803z"/>
	<path class="st3" d="M403.251,234.163l-1.224,3.096h-4.393l7.249-16.801h4.393l7.081,16.801h-4.561l-1.2-3.096H403.251z
		 M406.947,224.706l-2.448,6.217h4.848L406.947,224.706z"/>
	<path class="st3" d="M432.315,228.713v6.553c-1.8,1.272-4.632,2.185-6.985,2.185c-5.112,0-8.977-3.696-8.977-8.593
		c0-4.872,3.96-8.545,9.265-8.545c2.496,0,5.137,0.96,6.865,2.496l-2.4,2.904c-1.224-1.128-2.928-1.824-4.488-1.824
		c-2.76,0-4.873,2.16-4.873,4.969c0,2.856,2.136,5.017,4.92,5.017c0.864,0,1.968-0.312,2.977-0.816v-4.345H432.315z"/>
	<path class="st3" d="M442.923,232.53h-0.12h-3.24v4.729h-4.272v-16.801h7.513c4.44,0,6.984,2.111,6.984,5.856
		c0,2.567-1.08,4.416-3.048,5.4l3.528,5.544h-4.848L442.923,232.53z M442.803,229.17c1.848,0,2.928-0.936,2.928-2.712
		c0-1.752-1.08-2.64-2.928-2.64h-3.24v5.352H442.803z"/>
	<path class="st3" d="M456.482,234.163l-1.224,3.096h-4.393l7.249-16.801h4.393l7.081,16.801h-4.561l-1.2-3.096H456.482z
		 M460.179,224.706l-2.448,6.217h4.848L460.179,224.706z"/>
	<path class="st3" d="M485.835,237.258l-0.024-10.921l-4.032,9.241h-2.784l-4.032-9.241v10.921h-3.816v-16.825h4.68l4.561,10.009
		l4.561-10.009h4.656v16.825H485.835z"/>
	<path class="st3" d="M507.675,237.258l-0.024-10.921l-4.032,9.241h-2.784l-4.032-9.241v10.921h-3.816v-16.825h4.68l4.561,10.009
		l4.561-10.009h4.656v16.825H507.675z"/>
	<path class="st3" d="M514.825,237.258v-16.801h4.272v16.801H514.825z"/>
	<path class="st3" d="M534.194,237.258l-7.729-10.345v10.345h-4.008v-16.801h3.768l7.753,10.368v-10.368h3.984v16.801H534.194z"/>
	<path class="st3" d="M556.178,228.713v6.553c-1.8,1.272-4.633,2.185-6.985,2.185c-5.112,0-8.977-3.696-8.977-8.593
		c0-4.872,3.96-8.545,9.265-8.545c2.496,0,5.136,0.96,6.865,2.496l-2.4,2.904c-1.224-1.128-2.928-1.824-4.488-1.824
		c-2.76,0-4.873,2.16-4.873,4.969c0,2.856,2.136,5.017,4.92,5.017c0.864,0,1.968-0.312,2.977-0.816v-4.345H556.178z"/>
</g>
<g>
	<rect x="355.91" y="266.312" class="st1" width="217.368" height="22.285"/>
	<path class="st3" d="M365.535,267.318c3.768,0,6.168,1.632,6.168,4.2c0,1.776-1.104,3.192-2.88,3.696
		c2.112,0.408,3.457,2.063,3.457,4.249c0,2.855-2.497,4.656-6.457,4.656h-8.233v-16.802H365.535z M361.838,274.038h3.456
		c1.248,0,2.04-0.672,2.04-1.752s-0.792-1.703-2.04-1.703h-3.456V274.038z M361.838,280.831h3.456c1.584,0,2.568-0.695,2.568-1.896
		c0-1.127-0.984-1.824-2.568-1.824h-3.456V280.831z"/>
	<path class="st3" d="M382.383,279.391h-0.12h-3.24v4.729h-4.272v-16.802h7.513c4.44,0,6.984,2.112,6.984,5.856
		c0,2.568-1.08,4.416-3.048,5.4l3.528,5.545h-4.848L382.383,279.391z M382.263,276.03c1.848,0,2.928-0.936,2.928-2.711
		c0-1.753-1.08-2.641-2.928-2.641h-3.24v5.352H382.263z"/>
	<path class="st3" d="M395.942,281.023l-1.224,3.097h-4.393l7.249-16.802h4.393l7.081,16.802h-4.561l-1.2-3.097H395.942z
		 M399.639,271.566l-2.448,6.217h4.848L399.639,271.566z"/>
	<path class="st3" d="M410.605,284.12v-16.802h4.272v16.802H410.605z"/>
	<path class="st3" d="M429.974,284.12l-7.729-10.346v10.346h-4.008v-16.802h3.768l7.753,10.368v-10.368h3.984v16.802H429.974z"/>
	<path class="st3" d="M450.182,268.999l-1.608,3.336c-1.776-1.032-4.008-1.752-5.376-1.752c-1.104,0-1.848,0.408-1.848,1.224
		c0,2.904,8.88,1.248,8.88,7.32c0,3.36-2.976,5.137-6.72,5.137c-2.809,0-5.688-1.056-7.681-2.688l1.656-3.288
		c1.729,1.513,4.321,2.521,6.073,2.521c1.344,0,2.184-0.504,2.184-1.465c0-2.976-8.881-1.199-8.881-7.152
		c0-3.096,2.665-5.064,6.697-5.064C445.982,267.126,448.454,267.87,450.182,268.999z"/>
	<path class="st3" d="M460.334,270.751v13.369h-4.272v-13.369h-5.017v-3.457h14.354v3.457H460.334z"/>
	<path class="st3" d="M483.422,275.694c0,4.896-3.888,8.617-9.097,8.617c-5.185,0-9.073-3.696-9.073-8.617
		c0-4.896,3.888-8.52,9.073-8.52C479.534,267.174,483.422,270.822,483.422,275.694z M469.621,275.718
		c0,2.833,2.184,5.017,4.752,5.017c2.592,0,4.656-2.184,4.656-5.017c0-2.832-2.064-4.968-4.656-4.968
		S469.621,272.886,469.621,275.718z"/>
	<path class="st3" d="M493.31,279.391h-0.12h-3.24v4.729h-4.272v-16.802h7.513c4.44,0,6.984,2.112,6.984,5.856
		c0,2.568-1.08,4.416-3.048,5.4l3.528,5.545h-4.848L493.31,279.391z M493.189,276.03c1.848,0,2.928-0.936,2.928-2.711
		c0-1.753-1.08-2.641-2.928-2.641h-3.24v5.352H493.189z"/>
	<path class="st3" d="M517.742,284.12l-0.024-10.922l-4.032,9.241h-2.784l-4.032-9.241v10.922h-3.816v-16.826h4.68l4.561,10.01
		l4.561-10.01h4.656v16.826H517.742z"/>
	<path class="st3" d="M524.893,284.12v-16.802h4.272v16.802H524.893z"/>
	<path class="st3" d="M544.261,284.12l-7.729-10.346v10.346h-4.008v-16.802h3.768l7.753,10.368v-10.368h3.984v16.802H544.261z"/>
	<path class="st3" d="M566.246,275.575v6.553c-1.8,1.271-4.633,2.184-6.985,2.184c-5.112,0-8.977-3.696-8.977-8.593
		c0-4.872,3.96-8.544,9.265-8.544c2.496,0,5.136,0.959,6.865,2.496l-2.4,2.904c-1.224-1.129-2.928-1.824-4.488-1.824
		c-2.76,0-4.873,2.16-4.873,4.968c0,2.856,2.136,5.017,4.92,5.017c0.864,0,1.968-0.312,2.977-0.816v-4.344H566.246z"/>
</g>
<g>
	<rect x="395.814" y="309.621" class="st1" width="137.559" height="22.5"/>
	<path class="st3" d="M404.815,310.628c4.296,0,6.769,2.111,6.769,5.856c0,3.936-2.472,6.216-6.769,6.216h-3.048v4.729h-4.272
		v-16.801H404.815z M401.767,319.339h2.832c1.872,0,2.952-0.936,2.952-2.712c0-1.752-1.08-2.64-2.952-2.64h-2.832V319.339z"/>
	<path class="st3" d="M418.087,313.988v3.336h8.017v3.36h-8.017v3.384h9.145v3.36h-13.417v-16.801h13.153v3.36H418.087z"/>
	<path class="st3" d="M437.623,322.7h-0.12h-3.24v4.729h-4.272v-16.801h7.513c4.44,0,6.984,2.111,6.984,5.856
		c0,2.567-1.08,4.416-3.048,5.4l3.528,5.544h-4.848L437.623,322.7z M437.503,319.339c1.848,0,2.928-0.936,2.928-2.712
		c0-1.752-1.08-2.64-2.928-2.64h-3.24v5.352H437.503z"/>
	<path class="st3" d="M460.447,312.307l-1.608,3.336c-1.776-1.031-4.008-1.752-5.376-1.752c-1.104,0-1.848,0.408-1.848,1.225
		c0,2.904,8.88,1.248,8.88,7.32c0,3.36-2.976,5.137-6.72,5.137c-2.809,0-5.688-1.057-7.681-2.688l1.656-3.288
		c1.729,1.512,4.321,2.52,6.073,2.52c1.344,0,2.184-0.504,2.184-1.464c0-2.976-8.881-1.2-8.881-7.152
		c0-3.097,2.665-5.064,6.697-5.064C456.247,310.435,458.719,311.179,460.447,312.307z"/>
	<path class="st3" d="M479.888,319.003c0,4.896-3.888,8.617-9.097,8.617c-5.185,0-9.073-3.696-9.073-8.617
		c0-4.896,3.888-8.521,9.073-8.521C476,310.483,479.888,314.131,479.888,319.003z M466.086,319.028c0,2.832,2.184,5.017,4.752,5.017
		c2.592,0,4.656-2.185,4.656-5.017s-2.064-4.969-4.656-4.969S466.086,316.196,466.086,319.028z"/>
	<path class="st3" d="M493.879,327.428l-7.729-10.345v10.345h-4.008v-16.801h3.768l7.753,10.368v-10.368h3.984v16.801H493.879z"/>
	<path class="st3" d="M504.822,324.333l-1.224,3.096h-4.393l7.249-16.801h4.393l7.081,16.801h-4.561l-1.2-3.096H504.822z
		 M508.519,314.876l-2.448,6.217h4.848L508.519,314.876z"/>
	<path class="st3" d="M532.495,312.307l-1.608,3.336c-1.776-1.031-4.008-1.752-5.376-1.752c-1.104,0-1.848,0.408-1.848,1.225
		c0,2.904,8.88,1.248,8.88,7.32c0,3.36-2.976,5.137-6.72,5.137c-2.809,0-5.688-1.057-7.681-2.688l1.656-3.288
		c1.729,1.512,4.321,2.52,6.073,2.52c1.344,0,2.184-0.504,2.184-1.464c0-2.976-8.881-1.2-8.881-7.152
		c0-3.097,2.665-5.064,6.697-5.064C528.295,310.435,530.767,311.179,532.495,312.307z"/>
</g>
<g>
	<rect x="355.616" y="357.194" class="st1" width="217.956" height="22.5"/>
	<path class="st3" d="M370.377,359.88l-1.608,3.336c-1.776-1.031-4.008-1.752-5.376-1.752c-1.104,0-1.848,0.408-1.848,1.225
		c0,2.904,8.88,1.248,8.88,7.32c0,3.36-2.976,5.137-6.72,5.137c-2.809,0-5.688-1.057-7.681-2.688l1.656-3.288
		c1.729,1.512,4.321,2.52,6.073,2.52c1.344,0,2.184-0.504,2.184-1.464c0-2.976-8.881-1.2-8.881-7.152
		c0-3.097,2.665-5.064,6.697-5.064C366.177,358.008,368.649,358.753,370.377,359.88z"/>
	<path class="st3" d="M380.529,361.632v13.369h-4.272v-13.369h-5.017v-3.456h14.354v3.456H380.529z"/>
	<path class="st3" d="M403.618,366.577c0,4.896-3.888,8.617-9.097,8.617c-5.185,0-9.073-3.696-9.073-8.617
		c0-4.896,3.888-8.521,9.073-8.521C399.729,358.056,403.618,361.705,403.618,366.577z M389.816,366.601
		c0,2.832,2.184,5.017,4.752,5.017c2.592,0,4.656-2.185,4.656-5.017s-2.064-4.969-4.656-4.969S389.816,363.769,389.816,366.601z"/>
	<path class="st3" d="M413.505,370.273h-0.12h-3.24v4.729h-4.272v-16.801h7.513c4.44,0,6.984,2.111,6.984,5.856
		c0,2.567-1.08,4.416-3.048,5.4l3.528,5.544h-4.848L413.505,370.273z M413.385,366.913c1.848,0,2.928-0.936,2.928-2.712
		c0-1.752-1.08-2.64-2.928-2.64h-3.24v5.352H413.385z"/>
	<path class="st3" d="M431.745,375.002h-4.248v-5.305l-6.217-11.496h4.272l4.056,7.32l3.96-7.32h4.272l-6.097,11.377V375.002z"/>
	<path class="st3" d="M447.345,358.201c3.768,0,6.168,1.632,6.168,4.2c0,1.776-1.104,3.192-2.88,3.696
		c2.112,0.408,3.457,2.063,3.457,4.248c0,2.856-2.497,4.656-6.457,4.656H439.4v-16.801H447.345z M443.648,364.92h3.456
		c1.248,0,2.04-0.672,2.04-1.752s-0.792-1.704-2.04-1.704h-3.456V364.92z M443.648,371.713h3.456c1.584,0,2.568-0.696,2.568-1.896
		c0-1.128-0.984-1.824-2.568-1.824h-3.456V371.713z"/>
	<path class="st3" d="M473.625,366.577c0,4.896-3.888,8.617-9.097,8.617c-5.185,0-9.073-3.696-9.073-8.617
		c0-4.896,3.888-8.521,9.073-8.521C469.737,358.056,473.625,361.705,473.625,366.577z M459.824,366.601
		c0,2.832,2.184,5.017,4.752,5.017c2.592,0,4.656-2.185,4.656-5.017s-2.064-4.969-4.656-4.969S459.824,363.769,459.824,366.601z"/>
	<path class="st3" d="M479.24,371.906l-1.224,3.096h-4.393l7.249-16.801h4.393l7.081,16.801h-4.561l-1.2-3.096H479.24z
		 M482.937,362.449l-2.448,6.217h4.848L482.937,362.449z"/>
	<path class="st3" d="M501.537,370.273h-0.12h-3.24v4.729h-4.272v-16.801h7.513c4.44,0,6.984,2.111,6.984,5.856
		c0,2.567-1.08,4.416-3.048,5.4l3.528,5.544h-4.848L501.537,370.273z M501.417,366.913c1.848,0,2.928-0.936,2.928-2.712
		c0-1.752-1.08-2.64-2.928-2.64h-3.24v5.352H501.417z"/>
	<path class="st3" d="M518.505,358.201c5.28,0,8.929,3.408,8.929,8.4c0,4.969-3.696,8.4-9.097,8.4h-7.057v-16.801H518.505z
		 M515.553,371.593h3.048c2.616,0,4.488-2.016,4.488-4.969c0-2.976-1.968-5.016-4.681-5.016h-2.856V371.593z"/>
	<path class="st3" d="M529.688,375.002v-16.801h4.272v16.801H529.688z"/>
	<path class="st3" d="M549.057,375.002l-7.729-10.345v10.345h-4.008v-16.801h3.768l7.753,10.368v-10.368h3.984v16.801H549.057z"/>
	<path class="st3" d="M571.041,366.457v6.553c-1.8,1.272-4.632,2.185-6.985,2.185c-5.112,0-8.977-3.696-8.977-8.593
		c0-4.872,3.96-8.545,9.265-8.545c2.496,0,5.137,0.96,6.865,2.496l-2.4,2.904c-1.224-1.128-2.928-1.824-4.488-1.824
		c-2.76,0-4.873,2.16-4.873,4.969c0,2.856,2.136,5.017,4.92,5.017c0.864,0,1.968-0.312,2.977-0.816v-4.345H571.041z"/>
</g>
<g>
	<rect x="391.987" y="399.974" class="st1" width="145.213" height="22.5"/>
	<path class="st3" d="M406.748,402.661l-1.608,3.336c-1.776-1.031-4.008-1.752-5.376-1.752c-1.104,0-1.848,0.408-1.848,1.225
		c0,2.904,8.88,1.248,8.88,7.32c0,3.36-2.976,5.137-6.72,5.137c-2.809,0-5.688-1.057-7.681-2.688l1.656-3.288
		c1.729,1.512,4.321,2.52,6.073,2.52c1.344,0,2.184-0.504,2.184-1.464c0-2.976-8.881-1.2-8.881-7.152
		c0-3.097,2.665-5.064,6.697-5.064C402.548,400.789,405.02,401.533,406.748,402.661z"/>
	<path class="st3" d="M415.627,411.181l-2.232,2.473v4.128h-4.272v-16.801h4.272v7.272l6.433-7.272h4.944l-6.241,6.96l6.648,9.841
		h-5.112L415.627,411.181z"/>
	<path class="st3" d="M431.323,404.34v3.337h8.017v3.36h-8.017v3.384h9.145v3.36h-13.417v-16.801h13.153v3.359H431.323z"/>
	<path class="st3" d="M451.003,404.413v13.369h-4.272v-13.369h-5.017v-3.456h14.354v3.456H451.003z"/>
	<path class="st3" d="M471.668,403.669l-2.472,2.929c-1.104-1.345-2.736-2.185-4.224-2.185c-2.665,0-4.681,2.112-4.681,4.873
		c0,2.808,2.016,4.944,4.681,4.944c1.416,0,3.048-0.769,4.224-1.969l2.496,2.641c-1.8,1.848-4.464,3.072-6.937,3.072
		c-5.064,0-8.833-3.721-8.833-8.641c0-4.849,3.864-8.497,8.977-8.497C467.396,400.836,469.988,401.941,471.668,403.669z"/>
	<path class="st3" d="M484.867,417.782v-6.528h-6.96v6.528h-4.272v-16.801h4.272v6.912h6.96v-6.912h4.272v16.801H484.867z"/>
	<path class="st3" d="M492.498,417.782v-16.801h4.272v16.801H492.498z"/>
	<path class="st3" d="M511.867,417.782l-7.729-10.345v10.345h-4.008v-16.801h3.768l7.753,10.368v-10.368h3.984v16.801H511.867z"/>
	<path class="st3" d="M533.851,409.237v6.553c-1.8,1.272-4.633,2.185-6.985,2.185c-5.112,0-8.977-3.696-8.977-8.593
		c0-4.872,3.96-8.545,9.265-8.545c2.496,0,5.136,0.96,6.865,2.496l-2.4,2.904c-1.224-1.128-2.928-1.824-4.488-1.824
		c-2.76,0-4.873,2.16-4.873,4.969c0,2.856,2.136,5.017,4.92,5.017c0.864,0,1.968-0.312,2.977-0.816v-4.345H533.851z"/>
</g>
<g>
	<rect x="687.27" y="191.269" class="st1" width="217.368" height="24.129"/>
	<path class="st4" d="M722.636,205.501v3.576h-11.4v-16.801h4.271v13.225H722.636z"/>
	<path class="st4" d="M741.74,200.652c0,4.896-3.888,8.617-9.097,8.617c-5.185,0-9.072-3.696-9.072-8.617
		c0-4.896,3.888-8.521,9.072-8.521C737.853,192.131,741.74,195.78,741.74,200.652z M727.938,200.676
		c0,2.832,2.185,5.017,4.753,5.017c2.593,0,4.656-2.185,4.656-5.017s-2.063-4.969-4.656-4.969S727.938,197.844,727.938,200.676z"/>
	<path class="st4" d="M758.252,209.077l-3.12-11.617l-3.168,11.617h-4.416l-5.497-16.801h4.561l3.288,12.36l3.217-12.36h4.176
		l3.288,12.36l3.241-12.36h4.367l-5.544,16.801H758.252z"/>
	<path class="st4" d="M779.539,195.635v3.889h7.536v3.36h-7.536v6.192h-4.272v-16.801h12.457v3.359H779.539z"/>
	<path class="st4" d="M789.763,209.077v-16.801h4.271v16.801H789.763z"/>
	<path class="st4" d="M804.618,192.276c5.281,0,8.93,3.408,8.93,8.4c0,4.969-3.697,8.4-9.098,8.4h-7.057v-16.801H804.618z
		 M801.667,205.669h3.048c2.616,0,4.488-2.016,4.488-4.969c0-2.976-1.968-5.016-4.681-5.016h-2.855V205.669z"/>
	<path class="st4" d="M820.075,195.635v3.337h8.016v3.36h-8.016v3.384h9.145v3.36h-13.418v-16.801h13.154v3.359H820.075z"/>
	<path class="st4" d="M843.379,205.501v3.576h-11.401v-16.801h4.273v13.225H843.379z"/>
	<path class="st4" d="M845.418,209.077v-16.801h4.272v16.801H845.418z"/>
	<path class="st4" d="M860.827,195.708v13.369h-4.273v-13.369h-5.016v-3.456h14.354v3.456H860.827z"/>
	<path class="st4" d="M876.378,209.077h-4.248v-5.305l-6.217-11.496h4.272l4.056,7.32l3.961-7.32h4.272l-6.097,11.377V209.077z"/>
</g>
<g>
	<rect x="687.27" y="242.752" class="st1" width="217.368" height="24.032"/>
	<path class="st4" d="M720.104,260.56v-6.528h-6.961v6.528h-4.272v-16.802h4.272v6.913h6.961v-6.913h4.271v16.802H720.104z"/>
	<path class="st4" d="M727.735,260.56v-16.802h4.271v16.802H727.735z"/>
	<path class="st4" d="M750.224,252.015v6.553c-1.8,1.271-4.633,2.184-6.984,2.184c-5.112,0-8.977-3.696-8.977-8.593
		c0-4.872,3.961-8.544,9.265-8.544c2.496,0,5.136,0.96,6.864,2.496l-2.4,2.904c-1.224-1.128-2.928-1.824-4.488-1.824
		c-2.76,0-4.872,2.16-4.872,4.968c0,2.856,2.136,5.017,4.921,5.017c0.863,0,1.968-0.312,2.977-0.815v-4.345H750.224z"/>
	<path class="st4" d="M764.432,260.56v-6.528h-6.96v6.528h-4.273v-16.802h4.273v6.913h6.96v-6.913h4.272v16.802H764.432z"/>
	<path class="st4" d="M781.903,247.119v3.889h7.536v3.36h-7.536v6.192h-4.273v-16.802h12.457v3.36H781.903z"/>
	<path class="st4" d="M792.126,260.56v-16.802h4.272v16.802H792.126z"/>
	<path class="st4" d="M806.982,243.758c5.28,0,8.929,3.408,8.929,8.4c0,4.969-3.696,8.401-9.097,8.401h-7.057v-16.802H806.982z
		 M804.03,257.152h3.049c2.615,0,4.488-2.017,4.488-4.969c0-2.977-1.969-5.017-4.682-5.017h-2.855V257.152z"/>
	<path class="st4" d="M822.438,247.119v3.336h8.017v3.36h-8.017v3.385h9.145v3.36h-13.417v-16.802h13.153v3.36H822.438z"/>
	<path class="st4" d="M845.743,256.984v3.576h-11.401v-16.802h4.272v13.226H845.743z"/>
	<path class="st4" d="M847.782,260.56v-16.802h4.271v16.802H847.782z"/>
	<path class="st4" d="M863.19,247.191v13.369h-4.272v-13.369h-5.017v-3.457h14.354v3.457H863.19z"/>
	<path class="st4" d="M878.741,260.56h-4.248v-5.305l-6.217-11.497h4.273l4.056,7.32l3.96-7.32h4.273l-6.098,11.377V260.56z"/>
</g>
<g>
	<rect x="1034.027" y="191.269" class="st1" width="217.368" height="24.129"/>
	<path class="st5" d="M1061.798,202.02c0,4.44-2.952,7.249-7.656,7.249c-4.729,0-7.753-2.809-7.753-7.249v-9.744h4.272v9.744
		c0,2.28,1.464,3.673,3.504,3.673c2.017,0,3.385-1.393,3.385-3.673v-9.744h4.248V202.02z"/>
	<path class="st5" d="M1077.949,193.956l-1.607,3.336c-1.776-1.031-4.009-1.752-5.377-1.752c-1.104,0-1.848,0.408-1.848,1.225
		c0,2.904,8.88,1.248,8.88,7.32c0,3.36-2.976,5.137-6.72,5.137c-2.809,0-5.688-1.057-7.681-2.688l1.655-3.288
		c1.729,1.512,4.321,2.52,6.073,2.52c1.344,0,2.184-0.504,2.184-1.464c0-2.976-8.881-1.2-8.881-7.152
		c0-3.097,2.665-5.064,6.697-5.064C1073.749,192.084,1076.222,192.828,1077.949,193.956z"/>
	<path class="st5" d="M1084.069,205.981l-1.225,3.096h-4.393l7.249-16.801h4.393l7.08,16.801h-4.561l-1.199-3.096H1084.069z
		 M1087.766,196.524l-2.448,6.217h4.848L1087.766,196.524z"/>
	<path class="st5" d="M1106.678,192.276c3.768,0,6.168,1.632,6.168,4.2c0,1.776-1.104,3.192-2.88,3.696
		c2.112,0.408,3.456,2.063,3.456,4.248c0,2.856-2.496,4.656-6.456,4.656h-8.233v-16.801H1106.678z M1102.981,198.996h3.456
		c1.248,0,2.04-0.672,2.04-1.752s-0.792-1.704-2.04-1.704h-3.456V198.996z M1102.981,205.789h3.456c1.584,0,2.568-0.696,2.568-1.896
		c0-1.128-0.984-1.824-2.568-1.824h-3.456V205.789z"/>
	<path class="st5" d="M1115.893,209.077v-16.801h4.272v16.801H1115.893z"/>
	<path class="st5" d="M1134.926,205.501v3.576h-11.401v-16.801h4.272v13.225H1134.926z"/>
	<path class="st5" d="M1136.965,209.077v-16.801h4.272v16.801H1136.965z"/>
	<path class="st5" d="M1152.373,195.708v13.369h-4.272v-13.369h-5.017v-3.456h14.354v3.456H1152.373z"/>
	<path class="st5" d="M1167.925,209.077h-4.248v-5.305l-6.217-11.496h4.272l4.056,7.32l3.961-7.32h4.272l-6.097,11.377V209.077z"/>
	<path class="st5" d="M1188.925,195.708v13.369h-4.272v-13.369h-5.017v-3.456h14.354v3.456H1188.925z"/>
	<path class="st5" d="M1200.084,195.635v3.337h8.017v3.36h-8.017v3.384h9.145v3.36h-13.417v-16.801h13.153v3.359H1200.084z"/>
	<path class="st5" d="M1225.068,193.956l-1.607,3.336c-1.776-1.031-4.009-1.752-5.377-1.752c-1.104,0-1.848,0.408-1.848,1.225
		c0,2.904,8.88,1.248,8.88,7.32c0,3.36-2.976,5.137-6.72,5.137c-2.809,0-5.688-1.057-7.681-2.688l1.655-3.288
		c1.729,1.512,4.321,2.52,6.073,2.52c1.344,0,2.184-0.504,2.184-1.464c0-2.976-8.881-1.2-8.881-7.152
		c0-3.097,2.665-5.064,6.697-5.064C1220.868,192.084,1223.341,192.828,1225.068,193.956z"/>
	<path class="st5" d="M1235.221,195.708v13.369h-4.272v-13.369h-5.017v-3.456h14.354v3.456H1235.221z"/>
</g>
<g>
	<rect x="1028.557" y="238.616" class="st1" width="217.368" height="56.335"/>
	<path class="st5" d="M1085.751,242.311l-2.473,2.928c-1.104-1.344-2.736-2.184-4.224-2.184c-2.665,0-4.681,2.112-4.681,4.872
		c0,2.809,2.016,4.944,4.681,4.944c1.416,0,3.048-0.768,4.224-1.968l2.496,2.64c-1.8,1.849-4.464,3.072-6.937,3.072
		c-5.064,0-8.832-3.72-8.832-8.641c0-4.849,3.864-8.496,8.977-8.496C1081.479,239.479,1084.07,240.583,1085.751,242.311z"/>
	<path class="st5" d="M1104.495,248c0,4.896-3.889,8.616-9.097,8.616c-5.185,0-9.073-3.696-9.073-8.616
		c0-4.896,3.889-8.521,9.073-8.521C1100.606,239.479,1104.495,243.127,1104.495,248z M1090.693,248.023
		c0,2.833,2.185,5.017,4.753,5.017c2.592,0,4.656-2.184,4.656-5.017c0-2.832-2.064-4.968-4.656-4.968
		C1092.854,243.055,1090.693,245.191,1090.693,248.023z"/>
	<path class="st5" d="M1121.295,247.879v6.553c-1.8,1.271-4.633,2.184-6.984,2.184c-5.112,0-8.977-3.696-8.977-8.593
		c0-4.872,3.96-8.544,9.265-8.544c2.496,0,5.136,0.96,6.864,2.496l-2.4,2.904c-1.224-1.129-2.928-1.824-4.488-1.824
		c-2.76,0-4.872,2.16-4.872,4.968c0,2.856,2.136,5.017,4.92,5.017c0.864,0,1.969-0.312,2.977-0.815v-4.345H1121.295z"/>
	<path class="st5" d="M1136.007,256.424l-7.729-10.345v10.345h-4.009v-16.802h3.769l7.753,10.369v-10.369h3.984v16.802H1136.007z"/>
	<path class="st5" d="M1143.134,256.424v-16.802h4.272v16.802H1143.134z"/>
	<path class="st5" d="M1158.542,243.055v13.369h-4.272v-13.369h-5.017v-3.457h14.354v3.457H1158.542z"/>
	<path class="st5" d="M1165.43,256.424v-16.802h4.272v16.802H1165.43z"/>
	<path class="st5" d="M1177.886,256.424l-6.528-16.802h4.561l4.296,12.361l4.296-12.361h4.393l-6.601,16.802H1177.886z"/>
	<path class="st5" d="M1194.829,242.983v3.336h8.017v3.36h-8.017v3.385h9.145v3.36h-13.417v-16.802h13.153v3.36H1194.829z"/>
	<path class="st5" d="M1053.615,285.224l-3.12-11.617l-3.169,11.617h-4.416l-5.496-16.801h4.561l3.288,12.36l3.216-12.36h4.177
		l3.288,12.36l3.24-12.36h4.368l-5.544,16.801H1053.615z"/>
	<path class="st5" d="M1067.583,282.128l-1.225,3.096h-4.393l7.249-16.801h4.393l7.08,16.801h-4.561l-1.199-3.096H1067.583z
		 M1071.279,272.671l-2.448,6.217h4.848L1071.279,272.671z"/>
	<path class="st5" d="M1093.646,281.648v3.576h-11.4v-16.801h4.272v13.225H1093.646z"/>
	<path class="st5" d="M1102.19,278.624l-2.231,2.473v4.128h-4.272v-16.801h4.272v7.272l6.433-7.272h4.944l-6.241,6.96l6.648,9.841
		h-5.112L1102.19,278.624z"/>
	<path class="st5" d="M1121.391,271.855v13.369h-4.272v-13.369h-5.017v-3.456h14.354v3.456H1121.391z"/>
	<path class="st5" d="M1139.51,285.224v-6.528h-6.96v6.528h-4.272v-16.801h4.272v6.912h6.96v-6.912h4.272v16.801H1139.51z"/>
	<path class="st5" d="M1154.774,280.496h-0.12h-3.24v4.729h-4.272v-16.801h7.513c4.44,0,6.984,2.111,6.984,5.856
		c0,2.567-1.08,4.416-3.049,5.4l3.528,5.544h-4.848L1154.774,280.496z M1154.654,277.135c1.848,0,2.928-0.936,2.928-2.712
		c0-1.752-1.08-2.641-2.928-2.641h-3.24v5.353H1154.654z"/>
	<path class="st5" d="M1181.583,276.799c0,4.896-3.889,8.617-9.097,8.617c-5.185,0-9.073-3.696-9.073-8.617
		c0-4.896,3.889-8.521,9.073-8.521C1177.694,268.279,1181.583,271.927,1181.583,276.799z M1167.781,276.824
		c0,2.832,2.185,5.017,4.753,5.017c2.592,0,4.656-2.185,4.656-5.017s-2.064-4.969-4.656-4.969
		C1169.941,271.855,1167.781,273.992,1167.781,276.824z"/>
	<path class="st5" d="M1198.958,278.168c0,4.44-2.952,7.249-7.656,7.249c-4.729,0-7.753-2.809-7.753-7.249v-9.744h4.272v9.744
		c0,2.28,1.464,3.673,3.504,3.673c2.017,0,3.385-1.393,3.385-3.673v-9.744h4.248V278.168z"/>
	<path class="st5" d="M1216.887,276.679v6.553c-1.801,1.272-4.633,2.185-6.985,2.185c-5.112,0-8.977-3.696-8.977-8.593
		c0-4.872,3.961-8.545,9.265-8.545c2.496,0,5.137,0.96,6.865,2.496l-2.4,2.904c-1.225-1.128-2.929-1.824-4.488-1.824
		c-2.761,0-4.873,2.16-4.873,4.969c0,2.856,2.137,5.017,4.921,5.017c0.864,0,1.968-0.312,2.977-0.816v-4.345H1216.887z"/>
	<path class="st5" d="M1231.094,285.224v-6.528h-6.96v6.528h-4.272v-16.801h4.272v6.912h6.96v-6.912h4.272v16.801H1231.094z"/>
</g>
<g>
	<rect x="1028.557" y="309.621" class="st1" width="217.368" height="56.335"/>
	<path class="st5" d="M1083.854,327.429v-6.528h-6.96v6.528h-4.272v-16.801h4.272v6.912h6.96v-6.912h4.272v16.801H1083.854z"/>
	<path class="st5" d="M1095.758,313.989v3.336h8.017v3.36h-8.017v3.384h9.145v3.36h-13.417v-16.801h13.153v3.36H1095.758z"/>
	<path class="st5" d="M1122.782,320.373c0,4.44-2.952,7.249-7.656,7.249c-4.729,0-7.753-2.809-7.753-7.249v-9.744h4.272v9.744
		c0,2.28,1.464,3.673,3.505,3.673c2.016,0,3.384-1.393,3.384-3.673v-9.744h4.248V320.373z"/>
	<path class="st5" d="M1133.486,322.701h-0.12h-3.24v4.729h-4.272v-16.801h7.513c4.44,0,6.984,2.111,6.984,5.856
		c0,2.567-1.08,4.416-3.049,5.4l3.528,5.544h-4.848L1133.486,322.701z M1133.366,319.34c1.848,0,2.928-0.936,2.928-2.712
		c0-1.752-1.08-2.64-2.928-2.64h-3.24v5.352H1133.366z"/>
	<path class="st5" d="M1143.229,327.429v-16.801h4.272v16.801H1143.229z"/>
	<path class="st5" d="M1163.942,312.308l-1.608,3.336c-1.776-1.031-4.008-1.752-5.376-1.752c-1.104,0-1.849,0.408-1.849,1.225
		c0,2.904,8.881,1.248,8.881,7.32c0,3.36-2.977,5.137-6.721,5.137c-2.809,0-5.688-1.057-7.681-2.688l1.656-3.288
		c1.729,1.512,4.32,2.52,6.072,2.52c1.345,0,2.185-0.504,2.185-1.464c0-2.976-8.881-1.2-8.881-7.152
		c0-3.097,2.664-5.064,6.696-5.064C1159.742,310.436,1162.214,311.18,1163.942,312.308z"/>
	<path class="st5" d="M1174.094,314.06v13.369h-4.272V314.06h-5.017v-3.456h14.354v3.456H1174.094z"/>
	<path class="st5" d="M1180.981,327.429v-16.801h4.272v16.801H1180.981z"/>
	<path class="st5" d="M1203.254,313.316l-2.472,2.929c-1.104-1.345-2.736-2.185-4.225-2.185c-2.664,0-4.681,2.112-4.681,4.873
		c0,2.808,2.017,4.944,4.681,4.944c1.416,0,3.048-0.769,4.225-1.969l2.496,2.641c-1.8,1.848-4.465,3.072-6.937,3.072
		c-5.064,0-8.833-3.721-8.833-8.641c0-4.849,3.864-8.497,8.977-8.497C1198.981,310.484,1201.574,311.588,1203.254,313.316z"/>
	<path class="st5" d="M1080.674,353.133l-1.224,3.097h-4.393l7.248-16.802h4.393l7.081,16.802h-4.561l-1.2-3.097H1080.674z
		 M1084.37,343.676l-2.448,6.217h4.849L1084.37,343.676z"/>
	<path class="st5" d="M1107.074,356.23l-7.729-10.345v10.345h-4.008v-16.802h3.768l7.753,10.369v-10.369h3.984v16.802H1107.074z"/>
	<path class="st5" d="M1118.018,353.133l-1.224,3.097h-4.393l7.248-16.802h4.393l7.081,16.802h-4.561l-1.2-3.097H1118.018z
		 M1121.714,343.676l-2.448,6.217h4.849L1121.714,343.676z"/>
	<path class="st5" d="M1144.082,352.654v3.576h-11.4v-16.802h4.272v13.226H1144.082z"/>
	<path class="st5" d="M1154.786,356.23h-4.248v-5.305l-6.217-11.497h4.272l4.056,7.32l3.961-7.32h4.272l-6.097,11.377V356.23z"/>
	<path class="st5" d="M1175.522,341.109l-1.608,3.336c-1.776-1.032-4.008-1.752-5.376-1.752c-1.104,0-1.849,0.408-1.849,1.224
		c0,2.904,8.881,1.248,8.881,7.321c0,3.359-2.977,5.136-6.721,5.136c-2.809,0-5.688-1.056-7.681-2.688l1.656-3.288
		c1.729,1.513,4.32,2.521,6.072,2.521c1.345,0,2.185-0.504,2.185-1.464c0-2.977-8.881-1.2-8.881-7.153
		c0-3.096,2.664-5.064,6.696-5.064C1171.322,339.236,1173.794,339.98,1175.522,341.109z"/>
	<path class="st5" d="M1177.897,356.23v-16.802h4.272v16.802H1177.897z"/>
	<path class="st5" d="M1198.61,341.109l-1.608,3.336c-1.776-1.032-4.008-1.752-5.376-1.752c-1.104,0-1.849,0.408-1.849,1.224
		c0,2.904,8.881,1.248,8.881,7.321c0,3.359-2.977,5.136-6.721,5.136c-2.809,0-5.688-1.056-7.681-2.688l1.656-3.288
		c1.729,1.513,4.32,2.521,6.072,2.521c1.345,0,2.185-0.504,2.185-1.464c0-2.977-8.881-1.2-8.881-7.153
		c0-3.096,2.664-5.064,6.696-5.064C1194.41,339.236,1196.882,339.98,1198.61,341.109z"/>
</g>
<g>
	<g>
		<line class="st6" x1="258.358" y1="115.577" x2="331.358" y2="115.577"/>
		<g>
			<polygon class="st7" points="329.358,123.156 342.484,115.577 329.358,107.998 			"/>
		</g>
	</g>
</g>
<g>
	<g>
		<line class="st6" x1="586.358" y1="115.577" x2="666.358" y2="115.577"/>
		<g>
			<polygon class="st7" points="664.358,123.493 678.068,115.577 664.358,107.66 			"/>
		</g>
	</g>
</g>
<g>
	<g>
		<line class="st6" x1="921.358" y1="115.577" x2="1004.358" y2="115.577"/>
		<g>
			<polygon class="st7" points="1001.358,123.609 1015.269,115.577 1001.358,107.544 			"/>
		</g>
	</g>
</g>
<line class="st6" x1="1098.358" y1="23.577" x2="531.358" y2="23.577"/>
<line class="st6" x1="1096.358" y1="23.577" x2="1096.358" y2="61.577"/>
<g>
	<g>
		<line class="st6" x1="533.358" y1="23.577" x2="533.358" y2="50.577"/>
		<g>
			<polygon class="st7" points="525.779,48.577 533.358,61.702 540.938,48.577 			"/>
		</g>
	</g>
</g>
<g>
</g>
<g>
</g>
<g>
</g>
<g>
</g>
<g>
</g>
<g>
</g>
<g>
</g>
<g>
</g>
<g>
</g>
<g>
</g>
<g>
</g>
<g>
</g>
<g>
</g>
<g>
</g>
<g>
</g>
<g>
</g>
</svg>
