<?xml version="1.0" encoding="utf-8"?>
<!-- Generator: Adobe Illustrator 19.1.0, SVG Export Plug-In . SVG Version: 6.00 Build 0)  -->
<svg version="1.0" id="Layer_1" xmlns="http://www.w3.org/2000/svg" xmlns:xlink="http://www.w3.org/1999/xlink" x="0px" y="0px"
	 width="250px" height="250px" viewBox="0 0 250 250" style="enable-background:new 0 0 250 250;" xml:space="preserve">
<style type="text/css">
	.st0{fill:#DDDDDD;}
	.st1{fill:#EDEDED;}
	.st2{fill:#34596B;}
	.st3{fill:#FFFFFF;}
	.st4{fill:#FD5A39;}
	.st5{fill:#B2B2B2;}
	.st6{fill:#16313D;}
</style>
<g>
	<g>
		<g>
			<path class="st0" d="M27.471,177.232h44.265v-50.068v-8.959V88.69v-4.479v-7.381H53.288c-1.997,0-4.22,0.504-6.68,1.498
				c-2.461,1.003-4.422,2.231-5.878,3.688L21.295,101.95c-1.466,1.459-2.688,3.419-3.688,5.881
				c-1.003,2.458-1.501,4.684-1.501,6.686v47.956v12.891h11.365V177.232 M63.241,118.205h-35.77v-3.46
				c0.151-0.766,0.496-1.608,1.037-2.536l22.48-22.483c0.614-0.528,1.459-0.883,2.535-1.035h9.718V118.205z"/>
			<path class="st1" d="M231.702,52.001c-1.458-1.459-3.185-2.192-5.19-2.192H78.95c-1.996,0-3.726,0.733-5.189,2.192
				c-1.458,1.459-2.19,3.191-2.19,5.189v13.501v3.245V88.69v29.515v59.027h14.759h44.265h73.783h22.135
				c1.998,0,3.725-0.731,5.19-2.191c1.458-1.463,2.192-3.189,2.192-5.187V57.19C233.894,55.193,233.16,53.467,231.702,52.001z"/>
			<path class="st2" d="M63.734,131.729c0,1.066-0.865,1.933-1.932,1.933H46.896c-1.067,0-1.932-0.868-1.932-1.933l0,0
				c0-1.067,0.866-1.934,1.932-1.934h14.906C62.869,129.795,63.734,130.662,63.734,131.729L63.734,131.729z"/>
			<g>
				<circle class="st3" cx="150.486" cy="109.217" r="37.507"/>
				<path class="st4" d="M170.156,102.661h-13.115V89.545c0-1.035-0.842-1.87-1.87-1.87h-9.37c-1.033,0-1.876,0.836-1.876,1.87
					v13.116h-13.111c-1.037,0-1.875,0.837-1.875,1.876v9.361c0,1.03,0.837,1.868,1.875,1.868h13.111v13.117
					c0,1.04,0.843,1.877,1.876,1.877h9.37c1.028,0,1.87-0.837,1.87-1.877v-13.117h13.115c1.037,0,1.875-0.838,1.875-1.868v-9.361
					C172.032,103.498,171.194,102.661,170.156,102.661z"/>
			</g>
		</g>
		<path class="st5" d="M238.633,173.542c0,2.041-1.652,3.69-3.69,3.69H15.057c-2.038,0-3.69-1.649-3.69-3.69l0,0
			c0-2.037,1.652-3.688,3.69-3.688h219.886C236.981,169.854,238.633,171.505,238.633,173.542L238.633,173.542z"/>
	</g>
	<g>
		<g>
			<circle class="st2" cx="73.641" cy="175.365" r="24.827"/>
			<circle class="st1" cx="73.64" cy="175.365" r="17.164"/>
			<circle class="st6" cx="73.64" cy="175.365" r="5.655"/>
		</g>
		<g>
			<circle class="st2" cx="187.931" cy="175.365" r="24.827"/>
			<circle class="st1" cx="187.93" cy="175.365" r="17.164"/>
			<circle class="st6" cx="187.93" cy="175.365" r="5.655"/>
		</g>
	</g>
</g>
<g>
</g>
<g>
</g>
<g>
</g>
<g>
</g>
<g>
</g>
<g>
</g>
<g>
</g>
<g>
</g>
<g>
</g>
<g>
</g>
<g>
</g>
<g>
</g>
<g>
</g>
<g>
</g>
<g>
</g>
</svg>
