<?xml version="1.0" encoding="utf-8"?>
<!-- Generator: Adobe Illustrator 19.1.0, SVG Export Plug-In . SVG Version: 6.00 Build 0)  -->
<svg version="1.0" id="Layer_1" xmlns="http://www.w3.org/2000/svg" xmlns:xlink="http://www.w3.org/1999/xlink" x="0px" y="0px"
	 width="250px" height="250px" viewBox="0 0 250 250" style="enable-background:new 0 0 250 250;" xml:space="preserve">
<style type="text/css">
	.st0{fill:#F0AF1D;}
	.st1{fill:#E3BD32;}
	.st2{fill:#C43A20;}
	.st3{fill:#E24126;}
</style>
<g>
	<g>
		<g>
			<g>
				<path class="st0" d="M94.352,202.873c0.87-2.971-1.733-32.834-1.733-32.834l-19.52,10.279c0,0,10.427,33.167,11.914,33.125
					C86.501,213.4,93.482,205.844,94.352,202.873z"/>
			</g>
			<g>
				<path class="st0" d="M48.854,157.462c-2.969,0.875-10.512,7.873-10.551,9.358c-0.04,1.486,33.147,11.851,33.147,11.851
					l10.241-19.538C81.691,159.133,51.823,156.586,48.854,157.462z"/>
			</g>
		</g>
	</g>
	<g>
		<g>
			<g>
				<path class="st0" d="M164.011,159.507c-2.121,2.125-2.188,5.497-0.15,7.53l1.291,1.288c2.038,2.035,5.41,1.961,7.53-0.164
					l13.631-13.659c2.121-2.125,2.19-5.495,0.151-7.528l-1.292-1.29c-2.037-2.033-5.408-1.961-7.53,0.165L164.011,159.507z"/>
			</g>
		</g>
		<g>
			<path class="st1" d="M159.558,129.719c-2.121,2.124-2.189,5.495-0.151,7.53l1.293,1.289c2.038,2.033,5.408,1.961,7.529-0.164
				l13.632-13.658c2.12-2.124,2.188-5.496,0.15-7.53l-1.291-1.289c-2.038-2.034-5.409-1.96-7.53,0.165L159.558,129.719z"/>
		</g>
		<g>
			<path class="st1" d="M92.088,87.721c-2.121,2.125-5.492,2.198-7.529,0.164l-1.291-1.289c-2.038-2.034-1.971-5.405,0.15-7.53
				l13.631-13.657c2.121-2.125,5.493-2.198,7.53-0.164l1.291,1.289c2.038,2.034,1.971,5.405-0.15,7.53L92.088,87.721z"/>
		</g>
		<g>
			<g>
				<path class="st1" d="M121.885,92.118c-2.12,2.125-5.491,2.199-7.53,0.165l-1.29-1.289c-2.04-2.034-1.971-5.405,0.15-7.53
					l13.631-13.658c2.121-2.125,5.491-2.198,7.529-0.164l1.292,1.289c2.037,2.034,1.971,5.405-0.151,7.53L121.885,92.118z"/>
			</g>
		</g>
	</g>
	<g>
		<g>
			<path class="st2" d="M182.398,195.908c-0.649-5.258-16.36-94.664-16.36-94.664l-33.185,22.171c0,0,24.955,69.278,26.566,73.745
				c1.608,4.467-1.162,29.945,0.528,30.096C161.636,227.407,183.044,201.159,182.398,195.908z"/>
		</g>
	</g>
	<g>
		<g>
			<path class="st2" d="M150.348,85.584c0,0-89.437-15.542-94.693-16.18C50.4,68.766,24.193,90.224,24.348,91.914
				c0.155,1.691,25.626-1.128,30.097,0.472c4.469,1.601,73.795,26.426,73.795,26.426L150.348,85.584z"/>
		</g>
	</g>
	<path class="st3" d="M203.59,48.116c0.002-0.002,0.004-0.005,0.005-0.007c-0.029-0.03-0.062-0.059-0.094-0.089
		c-0.029-0.032-0.059-0.065-0.09-0.095c-0.002,0.002-0.004,0.005-0.007,0.007c-4.54-3.927-21.257,0.636-33.747,13.149
		c-12.671,12.695-12.671,12.695-46.079,46.166c-33.407,33.47-60.489,70.566-55.877,75.168c0.276-0.274,0.563-0.563,0.856-0.856
		c0.614,0.958,1.415,1.903,0.804,2.517c4.612,4.602,41.657-22.55,75.064-56.021c33.407-33.469,33.407-33.469,46.079-46.165
		C202.993,69.376,207.524,52.65,203.59,48.116z"/>
	<path class="st0" d="M195.641,66.088c0,0-1.614-3.533-4.167-6.08c-2.552-2.547-6.026-4.093-6.026-4.093
		c-0.726-0.725-1.928-0.699-2.683,0.058c-0.755,0.757-0.779,1.958-0.052,2.682c0,0,4.082,2.167,6.05,4.131
		c1.967,1.965,4.142,6.044,4.142,6.044c0.726,0.724,1.928,0.697,2.683-0.059C196.342,68.014,196.367,66.813,195.641,66.088z"/>
	<path class="st0" d="M66.205,188.219l-2.459-2.454l31.039-31.098c0.707-0.709,1.831-0.733,2.51-0.056l0,0
		c0.679,0.678,0.656,1.802-0.05,2.511L66.205,188.219z"/>
</g>
<g>
</g>
<g>
</g>
<g>
</g>
<g>
</g>
<g>
</g>
<g>
</g>
<g>
</g>
<g>
</g>
<g>
</g>
<g>
</g>
<g>
</g>
<g>
</g>
<g>
</g>
<g>
</g>
<g>
</g>
</svg>
